<?xml version="1.0" encoding="utf-8" standalone="no"?>
<!DOCTYPE svg PUBLIC "-//W3C//DTD SVG 1.1//EN"
  "http://www.w3.org/Graphics/SVG/1.1/DTD/svg11.dtd">
<svg xmlns:xlink="http://www.w3.org/1999/xlink" width="360pt" height="360pt" viewBox="0 0 360 360" xmlns="http://www.w3.org/2000/svg" version="1.1">
 <metadata>
  <rdf:RDF xmlns:dc="http://purl.org/dc/elements/1.1/" xmlns:cc="http://creativecommons.org/ns#" xmlns:rdf="http://www.w3.org/1999/02/22-rdf-syntax-ns#">
   <cc:Work>
    <dc:type rdf:resource="http://purl.org/dc/dcmitype/StillImage"/>
    <dc:date>2025-07-17T01:07:44.780237</dc:date>
    <dc:format>image/svg+xml</dc:format>
    <dc:creator>
     <cc:Agent>
      <dc:title>Matplotlib v3.8.0, https://matplotlib.org/</dc:title>
     </cc:Agent>
    </dc:creator>
   </cc:Work>
  </rdf:RDF>
 </metadata>
 <defs>
  <style type="text/css">*{stroke-linejoin: round; stroke-linecap: butt}</style>
 </defs>
 <g id="figure_1">
  <g id="patch_1">
   <path d="M 0 360 
L 360 360 
L 360 0 
L 0 0 
z
" style="fill: #ffffff"/>
  </g>
  <g id="axes_1">
   <g id="patch_2">
    <path d="M 47 317.86 
L 349.2 317.86 
L 349.2 10.8 
L 47 10.8 
z
" style="fill: #ffffff"/>
   </g>
   <g id="matplotlib.axis_1">
    <g id="xtick_1">
     <g id="line2d_1">
      <defs>
       <path id="m285ff2466c" d="M 0 0 
L 0 3.5 
" style="stroke: #000000; stroke-width: 0.8"/>
      </defs>
      <g>
       <use xlink:href="#m285ff2466c" x="60.736364" y="317.86" style="stroke: #000000; stroke-width: 0.8"/>
      </g>
     </g>
     <g id="text_1">
      <!-- 0 -->
      <g transform="translate(58.236364 331.80375) scale(0.1 -0.1)">
       <defs>
        <path id="TimesNewRomanPSMT-30" d="M 231 2094 
Q 231 2819 450 3342 
Q 669 3866 1031 4122 
Q 1313 4325 1613 4325 
Q 2100 4325 2488 3828 
Q 2972 3213 2972 2159 
Q 2972 1422 2759 906 
Q 2547 391 2217 158 
Q 1888 -75 1581 -75 
Q 975 -75 572 641 
Q 231 1244 231 2094 
z
M 844 2016 
Q 844 1141 1059 588 
Q 1238 122 1591 122 
Q 1759 122 1940 273 
Q 2122 425 2216 781 
Q 2359 1319 2359 2297 
Q 2359 3022 2209 3506 
Q 2097 3866 1919 4016 
Q 1791 4119 1609 4119 
Q 1397 4119 1231 3928 
Q 1006 3669 925 3112 
Q 844 2556 844 2016 
z
" transform="scale(0.015625)"/>
       </defs>
       <use xlink:href="#TimesNewRomanPSMT-30"/>
      </g>
     </g>
    </g>
    <g id="xtick_2">
     <g id="line2d_2">
      <g>
       <use xlink:href="#m285ff2466c" x="115.681818" y="317.86" style="stroke: #000000; stroke-width: 0.8"/>
      </g>
     </g>
     <g id="text_2">
      <!-- 20 -->
      <g transform="translate(110.681818 331.80375) scale(0.1 -0.1)">
       <defs>
        <path id="TimesNewRomanPSMT-32" d="M 2934 816 
L 2638 0 
L 138 0 
L 138 116 
Q 1241 1122 1691 1759 
Q 2141 2397 2141 2925 
Q 2141 3328 1894 3587 
Q 1647 3847 1303 3847 
Q 991 3847 742 3664 
Q 494 3481 375 3128 
L 259 3128 
Q 338 3706 661 4015 
Q 984 4325 1469 4325 
Q 1984 4325 2329 3994 
Q 2675 3663 2675 3213 
Q 2675 2891 2525 2569 
Q 2294 2063 1775 1497 
Q 997 647 803 472 
L 1909 472 
Q 2247 472 2383 497 
Q 2519 522 2628 598 
Q 2738 675 2819 816 
L 2934 816 
z
" transform="scale(0.015625)"/>
       </defs>
       <use xlink:href="#TimesNewRomanPSMT-32"/>
       <use xlink:href="#TimesNewRomanPSMT-30" x="50"/>
      </g>
     </g>
    </g>
    <g id="xtick_3">
     <g id="line2d_3">
      <g>
       <use xlink:href="#m285ff2466c" x="170.627273" y="317.86" style="stroke: #000000; stroke-width: 0.8"/>
      </g>
     </g>
     <g id="text_3">
      <!-- 40 -->
      <g transform="translate(165.627273 331.80375) scale(0.1 -0.1)">
       <defs>
        <path id="TimesNewRomanPSMT-34" d="M 2978 1563 
L 2978 1119 
L 2409 1119 
L 2409 0 
L 1894 0 
L 1894 1119 
L 100 1119 
L 100 1519 
L 2066 4325 
L 2409 4325 
L 2409 1563 
L 2978 1563 
z
M 1894 1563 
L 1894 3666 
L 406 1563 
L 1894 1563 
z
" transform="scale(0.015625)"/>
       </defs>
       <use xlink:href="#TimesNewRomanPSMT-34"/>
       <use xlink:href="#TimesNewRomanPSMT-30" x="50"/>
      </g>
     </g>
    </g>
    <g id="xtick_4">
     <g id="line2d_4">
      <g>
       <use xlink:href="#m285ff2466c" x="225.572727" y="317.86" style="stroke: #000000; stroke-width: 0.8"/>
      </g>
     </g>
     <g id="text_4">
      <!-- 60 -->
      <g transform="translate(220.572727 331.80375) scale(0.1 -0.1)">
       <defs>
        <path id="TimesNewRomanPSMT-36" d="M 2869 4325 
L 2869 4209 
Q 2456 4169 2195 4045 
Q 1934 3922 1679 3669 
Q 1425 3416 1258 3105 
Q 1091 2794 978 2366 
Q 1428 2675 1881 2675 
Q 2316 2675 2634 2325 
Q 2953 1975 2953 1425 
Q 2953 894 2631 456 
Q 2244 -75 1606 -75 
Q 1172 -75 869 213 
Q 275 772 275 1663 
Q 275 2231 503 2743 
Q 731 3256 1154 3653 
Q 1578 4050 1965 4187 
Q 2353 4325 2688 4325 
L 2869 4325 
z
M 925 2138 
Q 869 1716 869 1456 
Q 869 1156 980 804 
Q 1091 453 1309 247 
Q 1469 100 1697 100 
Q 1969 100 2183 356 
Q 2397 613 2397 1088 
Q 2397 1622 2184 2012 
Q 1972 2403 1581 2403 
Q 1463 2403 1327 2353 
Q 1191 2303 925 2138 
z
" transform="scale(0.015625)"/>
       </defs>
       <use xlink:href="#TimesNewRomanPSMT-36"/>
       <use xlink:href="#TimesNewRomanPSMT-30" x="50"/>
      </g>
     </g>
    </g>
    <g id="xtick_5">
     <g id="line2d_5">
      <g>
       <use xlink:href="#m285ff2466c" x="280.518182" y="317.86" style="stroke: #000000; stroke-width: 0.8"/>
      </g>
     </g>
     <g id="text_5">
      <!-- 80 -->
      <g transform="translate(275.518182 331.80375) scale(0.1 -0.1)">
       <defs>
        <path id="TimesNewRomanPSMT-38" d="M 1228 2134 
Q 725 2547 579 2797 
Q 434 3047 434 3316 
Q 434 3728 753 4026 
Q 1072 4325 1600 4325 
Q 2113 4325 2425 4047 
Q 2738 3769 2738 3413 
Q 2738 3175 2569 2928 
Q 2400 2681 1866 2347 
Q 2416 1922 2594 1678 
Q 2831 1359 2831 1006 
Q 2831 559 2490 242 
Q 2150 -75 1597 -75 
Q 994 -75 656 303 
Q 388 606 388 966 
Q 388 1247 577 1523 
Q 766 1800 1228 2134 
z
M 1719 2469 
Q 2094 2806 2194 3001 
Q 2294 3197 2294 3444 
Q 2294 3772 2109 3958 
Q 1925 4144 1606 4144 
Q 1288 4144 1088 3959 
Q 888 3775 888 3528 
Q 888 3366 970 3203 
Q 1053 3041 1206 2894 
L 1719 2469 
z
M 1375 2016 
Q 1116 1797 991 1539 
Q 866 1281 866 981 
Q 866 578 1086 336 
Q 1306 94 1647 94 
Q 1984 94 2187 284 
Q 2391 475 2391 747 
Q 2391 972 2272 1150 
Q 2050 1481 1375 2016 
z
" transform="scale(0.015625)"/>
       </defs>
       <use xlink:href="#TimesNewRomanPSMT-38"/>
       <use xlink:href="#TimesNewRomanPSMT-30" x="50"/>
      </g>
     </g>
    </g>
    <g id="xtick_6">
     <g id="line2d_6">
      <g>
       <use xlink:href="#m285ff2466c" x="335.463636" y="317.86" style="stroke: #000000; stroke-width: 0.8"/>
      </g>
     </g>
     <g id="text_6">
      <!-- 100 -->
      <g transform="translate(327.963636 331.80375) scale(0.1 -0.1)">
       <defs>
        <path id="TimesNewRomanPSMT-31" d="M 750 3822 
L 1781 4325 
L 1884 4325 
L 1884 747 
Q 1884 391 1914 303 
Q 1944 216 2037 169 
Q 2131 122 2419 116 
L 2419 0 
L 825 0 
L 825 116 
Q 1125 122 1212 167 
Q 1300 213 1334 289 
Q 1369 366 1369 747 
L 1369 3034 
Q 1369 3497 1338 3628 
Q 1316 3728 1258 3775 
Q 1200 3822 1119 3822 
Q 1003 3822 797 3725 
L 750 3822 
z
" transform="scale(0.015625)"/>
       </defs>
       <use xlink:href="#TimesNewRomanPSMT-31"/>
       <use xlink:href="#TimesNewRomanPSMT-30" x="50"/>
       <use xlink:href="#TimesNewRomanPSMT-30" x="100"/>
      </g>
     </g>
    </g>
    <g id="text_7">
     <!-- False Accepted Rate (%) -->
     <g transform="translate(148.534375 344.886562) scale(0.1 -0.1)">
      <defs>
       <path id="TimesNewRomanPSMT-46" d="M 1309 4006 
L 1309 2341 
L 2081 2341 
Q 2347 2341 2470 2458 
Q 2594 2575 2634 2922 
L 2750 2922 
L 2750 1488 
L 2634 1488 
Q 2631 1734 2570 1850 
Q 2509 1966 2401 2023 
Q 2294 2081 2081 2081 
L 1309 2081 
L 1309 750 
Q 1309 428 1350 325 
Q 1381 247 1481 191 
Q 1619 116 1769 116 
L 1922 116 
L 1922 0 
L 103 0 
L 103 116 
L 253 116 
Q 516 116 634 269 
Q 709 369 709 750 
L 709 3488 
Q 709 3809 669 3913 
Q 638 3991 541 4047 
Q 406 4122 253 4122 
L 103 4122 
L 103 4238 
L 3256 4238 
L 3297 3306 
L 3188 3306 
Q 3106 3603 2998 3742 
Q 2891 3881 2733 3943 
Q 2575 4006 2244 4006 
L 1309 4006 
z
" transform="scale(0.015625)"/>
       <path id="TimesNewRomanPSMT-61" d="M 1822 413 
Q 1381 72 1269 19 
Q 1100 -59 909 -59 
Q 613 -59 420 144 
Q 228 347 228 678 
Q 228 888 322 1041 
Q 450 1253 767 1440 
Q 1084 1628 1822 1897 
L 1822 2009 
Q 1822 2438 1686 2597 
Q 1550 2756 1291 2756 
Q 1094 2756 978 2650 
Q 859 2544 859 2406 
L 866 2225 
Q 866 2081 792 2003 
Q 719 1925 600 1925 
Q 484 1925 411 2006 
Q 338 2088 338 2228 
Q 338 2497 613 2722 
Q 888 2947 1384 2947 
Q 1766 2947 2009 2819 
Q 2194 2722 2281 2516 
Q 2338 2381 2338 1966 
L 2338 994 
Q 2338 584 2353 492 
Q 2369 400 2405 369 
Q 2441 338 2488 338 
Q 2538 338 2575 359 
Q 2641 400 2828 588 
L 2828 413 
Q 2478 -56 2159 -56 
Q 2006 -56 1915 50 
Q 1825 156 1822 413 
z
M 1822 616 
L 1822 1706 
Q 1350 1519 1213 1441 
Q 966 1303 859 1153 
Q 753 1003 753 825 
Q 753 600 887 451 
Q 1022 303 1197 303 
Q 1434 303 1822 616 
z
" transform="scale(0.015625)"/>
       <path id="TimesNewRomanPSMT-6c" d="M 1184 4444 
L 1184 647 
Q 1184 378 1223 290 
Q 1263 203 1344 158 
Q 1425 113 1647 113 
L 1647 0 
L 244 0 
L 244 113 
Q 441 113 512 153 
Q 584 194 625 287 
Q 666 381 666 647 
L 666 3247 
Q 666 3731 644 3842 
Q 622 3953 573 3993 
Q 525 4034 450 4034 
Q 369 4034 244 3984 
L 191 4094 
L 1044 4444 
L 1184 4444 
z
" transform="scale(0.015625)"/>
       <path id="TimesNewRomanPSMT-73" d="M 2050 2947 
L 2050 1972 
L 1947 1972 
Q 1828 2431 1642 2597 
Q 1456 2763 1169 2763 
Q 950 2763 815 2647 
Q 681 2531 681 2391 
Q 681 2216 781 2091 
Q 878 1963 1175 1819 
L 1631 1597 
Q 2266 1288 2266 781 
Q 2266 391 1970 151 
Q 1675 -88 1309 -88 
Q 1047 -88 709 6 
Q 606 38 541 38 
Q 469 38 428 -44 
L 325 -44 
L 325 978 
L 428 978 
Q 516 541 762 319 
Q 1009 97 1316 97 
Q 1531 97 1667 223 
Q 1803 350 1803 528 
Q 1803 744 1651 891 
Q 1500 1038 1047 1263 
Q 594 1488 453 1669 
Q 313 1847 313 2119 
Q 313 2472 555 2709 
Q 797 2947 1181 2947 
Q 1350 2947 1591 2875 
Q 1750 2828 1803 2828 
Q 1853 2828 1881 2850 
Q 1909 2872 1947 2947 
L 2050 2947 
z
" transform="scale(0.015625)"/>
       <path id="TimesNewRomanPSMT-65" d="M 681 1784 
Q 678 1147 991 784 
Q 1303 422 1725 422 
Q 2006 422 2214 576 
Q 2422 731 2563 1106 
L 2659 1044 
Q 2594 616 2278 264 
Q 1963 -88 1488 -88 
Q 972 -88 605 314 
Q 238 716 238 1394 
Q 238 2128 614 2539 
Q 991 2950 1559 2950 
Q 2041 2950 2350 2633 
Q 2659 2316 2659 1784 
L 681 1784 
z
M 681 1966 
L 2006 1966 
Q 1991 2241 1941 2353 
Q 1863 2528 1708 2628 
Q 1553 2728 1384 2728 
Q 1125 2728 920 2526 
Q 716 2325 681 1966 
z
" transform="scale(0.015625)"/>
       <path id="TimesNewRomanPSMT-20" transform="scale(0.015625)"/>
       <path id="TimesNewRomanPSMT-41" d="M 2928 1419 
L 1288 1419 
L 1000 750 
Q 894 503 894 381 
Q 894 284 986 211 
Q 1078 138 1384 116 
L 1384 0 
L 50 0 
L 50 116 
Q 316 163 394 238 
Q 553 388 747 847 
L 2238 4334 
L 2347 4334 
L 3822 809 
Q 4000 384 4145 257 
Q 4291 131 4550 116 
L 4550 0 
L 2878 0 
L 2878 116 
Q 3131 128 3220 200 
Q 3309 272 3309 375 
Q 3309 513 3184 809 
L 2928 1419 
z
M 2841 1650 
L 2122 3363 
L 1384 1650 
L 2841 1650 
z
" transform="scale(0.015625)"/>
       <path id="TimesNewRomanPSMT-63" d="M 2631 1088 
Q 2516 522 2178 217 
Q 1841 -88 1431 -88 
Q 944 -88 581 321 
Q 219 731 219 1428 
Q 219 2103 620 2525 
Q 1022 2947 1584 2947 
Q 2006 2947 2278 2723 
Q 2550 2500 2550 2259 
Q 2550 2141 2473 2067 
Q 2397 1994 2259 1994 
Q 2075 1994 1981 2113 
Q 1928 2178 1911 2362 
Q 1894 2547 1784 2644 
Q 1675 2738 1481 2738 
Q 1169 2738 978 2506 
Q 725 2200 725 1697 
Q 725 1184 976 792 
Q 1228 400 1656 400 
Q 1963 400 2206 609 
Q 2378 753 2541 1131 
L 2631 1088 
z
" transform="scale(0.015625)"/>
       <path id="TimesNewRomanPSMT-70" d="M -6 2578 
L 875 2934 
L 994 2934 
L 994 2266 
Q 1216 2644 1439 2795 
Q 1663 2947 1909 2947 
Q 2341 2947 2628 2609 
Q 2981 2197 2981 1534 
Q 2981 794 2556 309 
Q 2206 -88 1675 -88 
Q 1444 -88 1275 -22 
Q 1150 25 994 166 
L 994 -706 
Q 994 -1000 1030 -1079 
Q 1066 -1159 1155 -1206 
Q 1244 -1253 1478 -1253 
L 1478 -1369 
L -22 -1369 
L -22 -1253 
L 56 -1253 
Q 228 -1256 350 -1188 
Q 409 -1153 442 -1076 
Q 475 -1000 475 -688 
L 475 2019 
Q 475 2297 450 2372 
Q 425 2447 370 2484 
Q 316 2522 222 2522 
Q 147 2522 31 2478 
L -6 2578 
z
M 994 2081 
L 994 1013 
Q 994 666 1022 556 
Q 1066 375 1236 237 
Q 1406 100 1666 100 
Q 1978 100 2172 344 
Q 2425 663 2425 1241 
Q 2425 1897 2138 2250 
Q 1938 2494 1663 2494 
Q 1513 2494 1366 2419 
Q 1253 2363 994 2081 
z
" transform="scale(0.015625)"/>
       <path id="TimesNewRomanPSMT-74" d="M 1031 3803 
L 1031 2863 
L 1700 2863 
L 1700 2644 
L 1031 2644 
L 1031 788 
Q 1031 509 1111 412 
Q 1191 316 1316 316 
Q 1419 316 1516 380 
Q 1613 444 1666 569 
L 1788 569 
Q 1678 263 1478 108 
Q 1278 -47 1066 -47 
Q 922 -47 784 33 
Q 647 113 581 261 
Q 516 409 516 719 
L 516 2644 
L 63 2644 
L 63 2747 
Q 234 2816 414 2980 
Q 594 3144 734 3369 
Q 806 3488 934 3803 
L 1031 3803 
z
" transform="scale(0.015625)"/>
       <path id="TimesNewRomanPSMT-64" d="M 2222 322 
Q 2013 103 1813 7 
Q 1613 -88 1381 -88 
Q 913 -88 563 304 
Q 213 697 213 1313 
Q 213 1928 600 2439 
Q 988 2950 1597 2950 
Q 1975 2950 2222 2709 
L 2222 3238 
Q 2222 3728 2198 3840 
Q 2175 3953 2125 3993 
Q 2075 4034 2000 4034 
Q 1919 4034 1784 3984 
L 1744 4094 
L 2597 4444 
L 2738 4444 
L 2738 1134 
Q 2738 631 2761 520 
Q 2784 409 2836 365 
Q 2888 322 2956 322 
Q 3041 322 3181 375 
L 3216 266 
L 2366 -88 
L 2222 -88 
L 2222 322 
z
M 2222 541 
L 2222 2016 
Q 2203 2228 2109 2403 
Q 2016 2578 1861 2667 
Q 1706 2756 1559 2756 
Q 1284 2756 1069 2509 
Q 784 2184 784 1559 
Q 784 928 1059 592 
Q 1334 256 1672 256 
Q 1956 256 2222 541 
z
" transform="scale(0.015625)"/>
       <path id="TimesNewRomanPSMT-52" d="M 4325 0 
L 3194 0 
L 1759 1981 
Q 1600 1975 1500 1975 
Q 1459 1975 1412 1976 
Q 1366 1978 1316 1981 
L 1316 750 
Q 1316 350 1403 253 
Q 1522 116 1759 116 
L 1925 116 
L 1925 0 
L 109 0 
L 109 116 
L 269 116 
Q 538 116 653 291 
Q 719 388 719 750 
L 719 3488 
Q 719 3888 631 3984 
Q 509 4122 269 4122 
L 109 4122 
L 109 4238 
L 1653 4238 
Q 2328 4238 2648 4139 
Q 2969 4041 3192 3777 
Q 3416 3513 3416 3147 
Q 3416 2756 3161 2468 
Q 2906 2181 2372 2063 
L 3247 847 
Q 3547 428 3762 290 
Q 3978 153 4325 116 
L 4325 0 
z
M 1316 2178 
Q 1375 2178 1419 2176 
Q 1463 2175 1491 2175 
Q 2097 2175 2405 2437 
Q 2713 2700 2713 3106 
Q 2713 3503 2464 3751 
Q 2216 4000 1806 4000 
Q 1625 4000 1316 3941 
L 1316 2178 
z
" transform="scale(0.015625)"/>
       <path id="TimesNewRomanPSMT-28" d="M 1988 -1253 
L 1988 -1369 
Q 1516 -1131 1200 -813 
Q 750 -359 506 256 
Q 263 872 263 1534 
Q 263 2503 741 3301 
Q 1219 4100 1988 4444 
L 1988 4313 
Q 1603 4100 1356 3731 
Q 1109 3363 987 2797 
Q 866 2231 866 1616 
Q 866 947 969 400 
Q 1050 -31 1165 -292 
Q 1281 -553 1476 -793 
Q 1672 -1034 1988 -1253 
z
" transform="scale(0.015625)"/>
       <path id="TimesNewRomanPSMT-25" d="M 4350 4334 
L 1263 -175 
L 984 -175 
L 4072 4334 
L 4350 4334 
z
M 1138 4334 
Q 1559 4334 1792 3984 
Q 2025 3634 2025 3181 
Q 2025 2638 1762 2341 
Q 1500 2044 1131 2044 
Q 884 2044 678 2180 
Q 472 2316 348 2584 
Q 225 2853 225 3181 
Q 225 3509 350 3786 
Q 475 4063 692 4198 
Q 909 4334 1138 4334 
z
M 1128 4159 
Q 969 4159 845 3971 
Q 722 3784 722 3184 
Q 722 2750 791 2522 
Q 844 2350 956 2256 
Q 1022 2200 1119 2200 
Q 1269 2200 1375 2363 
Q 1531 2603 1531 3166 
Q 1531 3759 1378 4000 
Q 1278 4159 1128 4159 
z
M 4206 2103 
Q 4428 2103 4648 1962 
Q 4869 1822 4989 1553 
Q 5109 1284 5109 963 
Q 5109 409 4843 117 
Q 4578 -175 4216 -175 
Q 3988 -175 3773 -34 
Q 3559 106 3436 367 
Q 3313 628 3313 963 
Q 3313 1291 3436 1562 
Q 3559 1834 3773 1968 
Q 3988 2103 4206 2103 
z
M 4209 1938 
Q 4059 1938 3950 1769 
Q 3809 1550 3809 941 
Q 3809 381 3953 159 
Q 4059 0 4209 0 
Q 4353 0 4466 172 
Q 4616 400 4616 956 
Q 4616 1544 4466 1778 
Q 4363 1938 4209 1938 
z
" transform="scale(0.015625)"/>
       <path id="TimesNewRomanPSMT-29" d="M 144 4313 
L 144 4444 
Q 619 4209 934 3891 
Q 1381 3434 1625 2820 
Q 1869 2206 1869 1541 
Q 1869 572 1392 -226 
Q 916 -1025 144 -1369 
L 144 -1253 
Q 528 -1038 776 -670 
Q 1025 -303 1145 264 
Q 1266 831 1266 1447 
Q 1266 2113 1163 2663 
Q 1084 3094 967 3353 
Q 850 3613 656 3853 
Q 463 4094 144 4313 
z
" transform="scale(0.015625)"/>
      </defs>
      <use xlink:href="#TimesNewRomanPSMT-46"/>
      <use xlink:href="#TimesNewRomanPSMT-61" x="55.615234"/>
      <use xlink:href="#TimesNewRomanPSMT-6c" x="100"/>
      <use xlink:href="#TimesNewRomanPSMT-73" x="127.783203"/>
      <use xlink:href="#TimesNewRomanPSMT-65" x="166.699219"/>
      <use xlink:href="#TimesNewRomanPSMT-20" x="211.083984"/>
      <use xlink:href="#TimesNewRomanPSMT-41" x="230.583984"/>
      <use xlink:href="#TimesNewRomanPSMT-63" x="302.800781"/>
      <use xlink:href="#TimesNewRomanPSMT-63" x="347.185547"/>
      <use xlink:href="#TimesNewRomanPSMT-65" x="391.570312"/>
      <use xlink:href="#TimesNewRomanPSMT-70" x="435.955078"/>
      <use xlink:href="#TimesNewRomanPSMT-74" x="485.955078"/>
      <use xlink:href="#TimesNewRomanPSMT-65" x="513.738281"/>
      <use xlink:href="#TimesNewRomanPSMT-64" x="558.123047"/>
      <use xlink:href="#TimesNewRomanPSMT-20" x="608.123047"/>
      <use xlink:href="#TimesNewRomanPSMT-52" x="633.123047"/>
      <use xlink:href="#TimesNewRomanPSMT-61" x="699.822266"/>
      <use xlink:href="#TimesNewRomanPSMT-74" x="744.207031"/>
      <use xlink:href="#TimesNewRomanPSMT-65" x="771.990234"/>
      <use xlink:href="#TimesNewRomanPSMT-20" x="816.375"/>
      <use xlink:href="#TimesNewRomanPSMT-28" x="841.375"/>
      <use xlink:href="#TimesNewRomanPSMT-25" x="874.675781"/>
      <use xlink:href="#TimesNewRomanPSMT-29" x="957.976562"/>
     </g>
    </g>
   </g>
   <g id="matplotlib.axis_2">
    <g id="ytick_1">
     <g id="line2d_7">
      <defs>
       <path id="m16ad94c958" d="M 0 0 
L -3.5 0 
" style="stroke: #000000; stroke-width: 0.8"/>
      </defs>
      <g>
       <use xlink:href="#m16ad94c958" x="47" y="303.902727" style="stroke: #000000; stroke-width: 0.8"/>
      </g>
     </g>
     <g id="text_8">
      <!-- 0 -->
      <g transform="translate(35 307.374602) scale(0.1 -0.1)">
       <use xlink:href="#TimesNewRomanPSMT-30"/>
      </g>
     </g>
    </g>
    <g id="ytick_2">
     <g id="line2d_8">
      <g>
       <use xlink:href="#m16ad94c958" x="47" y="248.073636" style="stroke: #000000; stroke-width: 0.8"/>
      </g>
     </g>
     <g id="text_9">
      <!-- 20 -->
      <g transform="translate(30 251.545511) scale(0.1 -0.1)">
       <use xlink:href="#TimesNewRomanPSMT-32"/>
       <use xlink:href="#TimesNewRomanPSMT-30" x="50"/>
      </g>
     </g>
    </g>
    <g id="ytick_3">
     <g id="line2d_9">
      <g>
       <use xlink:href="#m16ad94c958" x="47" y="192.244545" style="stroke: #000000; stroke-width: 0.8"/>
      </g>
     </g>
     <g id="text_10">
      <!-- 40 -->
      <g transform="translate(30 195.71642) scale(0.1 -0.1)">
       <use xlink:href="#TimesNewRomanPSMT-34"/>
       <use xlink:href="#TimesNewRomanPSMT-30" x="50"/>
      </g>
     </g>
    </g>
    <g id="ytick_4">
     <g id="line2d_10">
      <g>
       <use xlink:href="#m16ad94c958" x="47" y="136.415455" style="stroke: #000000; stroke-width: 0.8"/>
      </g>
     </g>
     <g id="text_11">
      <!-- 60 -->
      <g transform="translate(30 139.88733) scale(0.1 -0.1)">
       <use xlink:href="#TimesNewRomanPSMT-36"/>
       <use xlink:href="#TimesNewRomanPSMT-30" x="50"/>
      </g>
     </g>
    </g>
    <g id="ytick_5">
     <g id="line2d_11">
      <g>
       <use xlink:href="#m16ad94c958" x="47" y="80.586364" style="stroke: #000000; stroke-width: 0.8"/>
      </g>
     </g>
     <g id="text_12">
      <!-- 80 -->
      <g transform="translate(30 84.058239) scale(0.1 -0.1)">
       <use xlink:href="#TimesNewRomanPSMT-38"/>
       <use xlink:href="#TimesNewRomanPSMT-30" x="50"/>
      </g>
     </g>
    </g>
    <g id="ytick_6">
     <g id="line2d_12">
      <g>
       <use xlink:href="#m16ad94c958" x="47" y="24.757273" style="stroke: #000000; stroke-width: 0.8"/>
      </g>
     </g>
     <g id="text_13">
      <!-- 100 -->
      <g transform="translate(25 28.229148) scale(0.1 -0.1)">
       <use xlink:href="#TimesNewRomanPSMT-31"/>
       <use xlink:href="#TimesNewRomanPSMT-30" x="50"/>
       <use xlink:href="#TimesNewRomanPSMT-30" x="100"/>
      </g>
     </g>
    </g>
    <g id="text_14">
     <!-- False Rejected Rate (%) -->
     <g transform="translate(18.842187 212.783906) rotate(-90) scale(0.1 -0.1)">
      <defs>
       <path id="TimesNewRomanPSMT-6a" d="M 925 4447 
Q 1059 4447 1153 4353 
Q 1247 4259 1247 4125 
Q 1247 3994 1153 3900 
Q 1059 3806 925 3806 
Q 794 3806 700 3900 
Q 606 3994 606 4125 
Q 606 4259 700 4353 
Q 794 4447 925 4447 
z
M 1194 2947 
L 1194 66 
Q 1194 -669 881 -1025 
Q 569 -1381 69 -1381 
Q -216 -1381 -353 -1278 
Q -491 -1175 -491 -1066 
Q -491 -956 -414 -878 
Q -338 -800 -234 -800 
Q -153 -800 -69 -841 
Q -16 -863 136 -998 
Q 288 -1134 391 -1134 
Q 466 -1134 537 -1076 
Q 609 -1019 643 -883 
Q 678 -747 678 -294 
L 678 1744 
Q 678 2216 650 2350 
Q 628 2453 581 2492 
Q 534 2531 453 2531 
Q 366 2531 241 2484 
L 197 2597 
L 1059 2947 
L 1194 2947 
z
" transform="scale(0.015625)"/>
      </defs>
      <use xlink:href="#TimesNewRomanPSMT-46"/>
      <use xlink:href="#TimesNewRomanPSMT-61" x="55.615234"/>
      <use xlink:href="#TimesNewRomanPSMT-6c" x="100"/>
      <use xlink:href="#TimesNewRomanPSMT-73" x="127.783203"/>
      <use xlink:href="#TimesNewRomanPSMT-65" x="166.699219"/>
      <use xlink:href="#TimesNewRomanPSMT-20" x="211.083984"/>
      <use xlink:href="#TimesNewRomanPSMT-52" x="236.083984"/>
      <use xlink:href="#TimesNewRomanPSMT-65" x="302.783203"/>
      <use xlink:href="#TimesNewRomanPSMT-6a" x="347.167969"/>
      <use xlink:href="#TimesNewRomanPSMT-65" x="374.951172"/>
      <use xlink:href="#TimesNewRomanPSMT-63" x="419.335938"/>
      <use xlink:href="#TimesNewRomanPSMT-74" x="463.720703"/>
      <use xlink:href="#TimesNewRomanPSMT-65" x="491.503906"/>
      <use xlink:href="#TimesNewRomanPSMT-64" x="535.888672"/>
      <use xlink:href="#TimesNewRomanPSMT-20" x="585.888672"/>
      <use xlink:href="#TimesNewRomanPSMT-52" x="610.888672"/>
      <use xlink:href="#TimesNewRomanPSMT-61" x="677.587891"/>
      <use xlink:href="#TimesNewRomanPSMT-74" x="721.972656"/>
      <use xlink:href="#TimesNewRomanPSMT-65" x="749.755859"/>
      <use xlink:href="#TimesNewRomanPSMT-20" x="794.140625"/>
      <use xlink:href="#TimesNewRomanPSMT-28" x="819.140625"/>
      <use xlink:href="#TimesNewRomanPSMT-25" x="852.441406"/>
      <use xlink:href="#TimesNewRomanPSMT-29" x="935.742188"/>
     </g>
    </g>
   </g>
   <g id="line2d_13">
    <path d="M 60.736364 24.757273 
L 60.736364 25.629602 
L 60.736364 72.735398 
L 61.594886 72.735398 
L 61.594886 188.755227 
L 62.453409 188.755227 
L 62.453409 217.542102 
L 63.311932 217.542102 
L 63.311932 220.159091 
L 64.170455 220.159091 
L 64.170455 227.137727 
L 65.028977 227.137727 
L 65.028977 246.328977 
L 65.8875 246.328977 
L 65.8875 251.562955 
L 66.746023 251.562955 
L 66.746023 252.435284 
L 67.604545 252.435284 
L 67.604545 254.179943 
L 68.463068 254.179943 
L 68.463068 258.541591 
L 69.321591 258.541591 
L 69.321591 260.28625 
L 71.038636 260.28625 
L 71.038636 262.030909 
L 71.897159 262.030909 
L 71.897159 264.647898 
L 72.755682 264.647898 
L 72.755682 266.392557 
L 75.33125 266.392557 
L 75.33125 269.009545 
L 76.189773 269.009545 
L 76.189773 269.881875 
L 77.048295 269.881875 
L 77.048295 271.626534 
L 78.765341 271.626534 
L 78.765341 272.498864 
L 80.482386 272.498864 
L 80.482386 273.371193 
L 81.340909 273.371193 
L 81.340909 282.966818 
L 83.916477 282.966818 
L 83.916477 283.839148 
L 85.633523 283.839148 
L 85.633523 284.711477 
L 88.209091 284.711477 
L 88.209091 285.583807 
L 89.067614 285.583807 
L 89.067614 289.073125 
L 93.360227 289.073125 
L 93.360227 291.690114 
L 98.511364 291.690114 
L 98.511364 292.562443 
L 101.086932 292.562443 
L 101.086932 293.434773 
L 102.803977 293.434773 
L 102.803977 294.307102 
L 105.379545 294.307102 
L 105.379545 295.179432 
L 107.096591 295.179432 
L 107.096591 296.051761 
L 107.955114 296.051761 
L 107.955114 296.924091 
L 109.672159 296.924091 
L 109.672159 297.79642 
L 111.389205 297.79642 
L 111.389205 298.66875 
L 115.681818 298.66875 
L 115.681818 299.54108 
L 122.55 299.54108 
L 122.55 300.413409 
L 158.607955 300.413409 
L 158.607955 301.285739 
L 176.636932 301.285739 
L 176.636932 302.158068 
L 184.363636 302.158068 
L 184.363636 303.030398 
L 214.411932 303.030398 
L 214.411932 303.902727 
L 333.746591 303.902727 
L 335.463636 303.902727 
" clip-path="url(#pacc7433daa)" style="fill: none; stroke: #1f77b4; stroke-width: 1.5; stroke-linecap: square"/>
   </g>
   <g id="line2d_14">
    <path d="M 60.736364 24.757273 
L 60.736364 25.629602 
L 60.736364 175.670284 
L 61.594886 175.670284 
L 61.594886 186.138239 
L 62.453409 186.138239 
L 62.453409 207.074148 
L 63.311932 207.074148 
L 63.311932 214.052784 
L 64.170455 214.052784 
L 64.170455 227.137727 
L 65.028977 227.137727 
L 65.028977 228.882386 
L 65.8875 228.882386 
L 65.8875 238.478011 
L 66.746023 238.478011 
L 66.746023 241.095 
L 67.604545 241.095 
L 67.604545 241.96733 
L 68.463068 241.96733 
L 68.463068 247.201307 
L 69.321591 247.201307 
L 69.321591 250.690625 
L 70.180114 250.690625 
L 70.180114 253.307614 
L 71.038636 253.307614 
L 71.038636 254.179943 
L 72.755682 254.179943 
L 72.755682 257.669261 
L 73.614205 257.669261 
L 73.614205 262.903239 
L 74.472727 262.903239 
L 74.472727 266.392557 
L 75.33125 266.392557 
L 75.33125 268.137216 
L 76.189773 268.137216 
L 76.189773 270.754205 
L 77.048295 270.754205 
L 77.048295 271.626534 
L 77.906818 271.626534 
L 77.906818 275.115852 
L 78.765341 275.115852 
L 78.765341 278.60517 
L 80.482386 278.60517 
L 80.482386 279.4775 
L 81.340909 279.4775 
L 81.340909 283.839148 
L 83.057955 283.839148 
L 83.057955 287.328466 
L 86.492045 287.328466 
L 86.492045 288.200795 
L 89.067614 288.200795 
L 89.067614 289.945455 
L 91.643182 289.945455 
L 91.643182 291.690114 
L 94.21875 291.690114 
L 94.21875 292.562443 
L 95.077273 292.562443 
L 95.077273 293.434773 
L 98.511364 293.434773 
L 98.511364 296.051761 
L 99.369886 296.051761 
L 99.369886 296.924091 
L 100.228409 296.924091 
L 100.228409 297.79642 
L 107.096591 297.79642 
L 107.096591 298.66875 
L 111.389205 298.66875 
L 111.389205 299.54108 
L 114.823295 299.54108 
L 114.823295 300.413409 
L 122.55 300.413409 
L 122.55 301.285739 
L 140.578977 301.285739 
L 140.578977 302.158068 
L 151.739773 302.158068 
L 151.739773 303.030398 
L 174.919886 303.030398 
L 174.919886 303.902727 
L 333.746591 303.902727 
L 335.463636 303.902727 
" clip-path="url(#pacc7433daa)" style="fill: none; stroke: #ff7f0e; stroke-width: 1.5; stroke-linecap: square"/>
   </g>
   <g id="line2d_15">
    <path d="M 60.736364 24.757273 
L 60.736364 31.735909 
L 61.594886 31.735909 
L 61.594886 58.778125 
L 62.453409 58.778125 
L 62.453409 71.863068 
L 63.311932 71.863068 
L 63.311932 74.480057 
L 64.170455 74.480057 
L 64.170455 77.969375 
L 65.028977 77.969375 
L 65.028977 90.181989 
L 65.8875 90.181989 
L 65.8875 107.62858 
L 66.746023 107.62858 
L 66.746023 112.862557 
L 67.604545 112.862557 
L 67.604545 114.607216 
L 68.463068 114.607216 
L 68.463068 119.841193 
L 69.321591 119.841193 
L 69.321591 125.07517 
L 70.180114 125.07517 
L 70.180114 126.81983 
L 71.897159 126.81983 
L 71.897159 130.309148 
L 72.755682 130.309148 
L 72.755682 134.670795 
L 73.614205 134.670795 
L 73.614205 136.415455 
L 74.472727 136.415455 
L 74.472727 141.649432 
L 75.33125 141.649432 
L 75.33125 143.394091 
L 76.189773 143.394091 
L 76.189773 146.883409 
L 77.048295 146.883409 
L 77.048295 150.372727 
L 77.906818 150.372727 
L 77.906818 152.989716 
L 78.765341 152.989716 
L 78.765341 153.862045 
L 79.623864 153.862045 
L 79.623864 159.968352 
L 80.482386 159.968352 
L 80.482386 160.840682 
L 81.340909 160.840682 
L 81.340909 162.585341 
L 83.916477 162.585341 
L 83.916477 163.45767 
L 84.775 163.45767 
L 84.775 171.308636 
L 85.633523 171.308636 
L 85.633523 172.180966 
L 86.492045 172.180966 
L 86.492045 173.053295 
L 87.350568 173.053295 
L 87.350568 176.542614 
L 89.067614 176.542614 
L 89.067614 177.414943 
L 89.926136 177.414943 
L 89.926136 180.031932 
L 90.784659 180.031932 
L 90.784659 190.499886 
L 91.643182 190.499886 
L 91.643182 194.861534 
L 92.501705 194.861534 
L 92.501705 195.733864 
L 93.360227 195.733864 
L 93.360227 196.606193 
L 94.21875 196.606193 
L 94.21875 200.967841 
L 95.935795 200.967841 
L 95.935795 202.7125 
L 96.794318 202.7125 
L 96.794318 203.58483 
L 97.652841 203.58483 
L 97.652841 206.201818 
L 99.369886 206.201818 
L 99.369886 210.563466 
L 100.228409 210.563466 
L 100.228409 211.435795 
L 102.803977 211.435795 
L 102.803977 214.052784 
L 103.6625 214.052784 
L 103.6625 214.925114 
L 104.521023 214.925114 
L 104.521023 218.414432 
L 106.238068 218.414432 
L 106.238068 219.286761 
L 107.096591 219.286761 
L 107.096591 220.159091 
L 109.672159 220.159091 
L 109.672159 223.648409 
L 111.389205 223.648409 
L 111.389205 224.520739 
L 113.10625 224.520739 
L 113.10625 225.393068 
L 114.823295 225.393068 
L 114.823295 227.137727 
L 116.540341 227.137727 
L 116.540341 229.754716 
L 118.257386 229.754716 
L 118.257386 230.627045 
L 119.115909 230.627045 
L 119.115909 234.988693 
L 119.974432 234.988693 
L 119.974432 235.861023 
L 120.832955 235.861023 
L 120.832955 238.478011 
L 122.55 238.478011 
L 122.55 239.350341 
L 124.267045 239.350341 
L 124.267045 241.095 
L 125.125568 241.095 
L 125.125568 241.96733 
L 125.984091 241.96733 
L 125.984091 247.201307 
L 128.559659 247.201307 
L 128.559659 248.073636 
L 130.276705 248.073636 
L 130.276705 248.945966 
L 132.852273 248.945966 
L 132.852273 249.818295 
L 135.427841 249.818295 
L 135.427841 250.690625 
L 136.286364 250.690625 
L 136.286364 251.562955 
L 137.144886 251.562955 
L 137.144886 252.435284 
L 141.4375 252.435284 
L 141.4375 253.307614 
L 143.154545 253.307614 
L 143.154545 254.179943 
L 144.013068 254.179943 
L 144.013068 255.052273 
L 145.730114 255.052273 
L 145.730114 255.924602 
L 146.588636 255.924602 
L 146.588636 256.796932 
L 147.447159 256.796932 
L 147.447159 257.669261 
L 148.305682 257.669261 
L 148.305682 258.541591 
L 150.88125 258.541591 
L 150.88125 260.28625 
L 153.456818 260.28625 
L 153.456818 261.15858 
L 156.032386 261.15858 
L 156.032386 262.030909 
L 157.749432 262.030909 
L 157.749432 262.903239 
L 162.042045 262.903239 
L 162.042045 263.775568 
L 164.617614 263.775568 
L 164.617614 266.392557 
L 166.334659 266.392557 
L 166.334659 267.264886 
L 171.485795 267.264886 
L 171.485795 268.137216 
L 176.636932 268.137216 
L 176.636932 269.009545 
L 177.495455 269.009545 
L 177.495455 269.881875 
L 186.939205 269.881875 
L 186.939205 271.626534 
L 188.65625 271.626534 
L 188.65625 272.498864 
L 190.373295 272.498864 
L 190.373295 273.371193 
L 195.524432 273.371193 
L 195.524432 274.243523 
L 197.241477 274.243523 
L 197.241477 275.115852 
L 198.1 275.115852 
L 198.1 276.860511 
L 201.534091 276.860511 
L 201.534091 277.732841 
L 204.109659 277.732841 
L 204.109659 278.60517 
L 204.968182 278.60517 
L 204.968182 279.4775 
L 205.826705 279.4775 
L 205.826705 280.34983 
L 207.54375 280.34983 
L 207.54375 281.222159 
L 208.402273 281.222159 
L 208.402273 282.094489 
L 211.836364 282.094489 
L 211.836364 282.966818 
L 214.411932 282.966818 
L 214.411932 284.711477 
L 215.270455 284.711477 
L 215.270455 285.583807 
L 216.128977 285.583807 
L 216.128977 286.456136 
L 230.723864 286.456136 
L 230.723864 289.073125 
L 234.157955 289.073125 
L 234.157955 289.945455 
L 235.016477 289.945455 
L 235.016477 290.817784 
L 239.309091 290.817784 
L 239.309091 291.690114 
L 245.31875 291.690114 
L 245.31875 292.562443 
L 246.177273 292.562443 
L 246.177273 293.434773 
L 259.055114 293.434773 
L 259.055114 294.307102 
L 265.923295 294.307102 
L 265.923295 295.179432 
L 266.781818 295.179432 
L 266.781818 296.051761 
L 267.640341 296.051761 
L 267.640341 296.924091 
L 290.820455 296.924091 
L 290.820455 297.79642 
L 292.5375 297.79642 
L 292.5375 298.66875 
L 301.122727 298.66875 
L 301.122727 299.54108 
L 314.000568 299.54108 
L 314.000568 300.413409 
L 315.717614 300.413409 
L 315.717614 301.285739 
L 321.727273 301.285739 
L 321.727273 302.158068 
L 324.302841 302.158068 
L 324.302841 303.030398 
L 330.3125 303.030398 
L 330.3125 303.902727 
L 335.463636 303.902727 
L 335.463636 303.902727 
" clip-path="url(#pacc7433daa)" style="fill: none; stroke: #2ca02c; stroke-width: 1.5; stroke-linecap: square"/>
   </g>
   <g id="line2d_16">
    <path d="M 60.736364 24.757273 
L 60.736364 87.565 
L 61.594886 87.565 
L 61.594886 102.394602 
L 62.453409 102.394602 
L 62.453409 139.032443 
L 63.311932 139.032443 
L 63.311932 142.521761 
L 64.170455 142.521761 
L 64.170455 148.628068 
L 66.746023 148.628068 
L 66.746023 150.372727 
L 67.604545 150.372727 
L 67.604545 152.117386 
L 68.463068 152.117386 
L 68.463068 157.351364 
L 69.321591 157.351364 
L 69.321591 161.713011 
L 70.180114 161.713011 
L 70.180114 169.563977 
L 71.038636 169.563977 
L 71.038636 171.308636 
L 71.897159 171.308636 
L 71.897159 182.64892 
L 72.755682 182.64892 
L 72.755682 184.39358 
L 73.614205 184.39358 
L 73.614205 187.882898 
L 74.472727 187.882898 
L 74.472727 191.372216 
L 75.33125 191.372216 
L 75.33125 192.244545 
L 76.189773 192.244545 
L 76.189773 193.989205 
L 77.048295 193.989205 
L 77.048295 198.350852 
L 77.906818 198.350852 
L 77.906818 200.095511 
L 78.765341 200.095511 
L 78.765341 204.457159 
L 79.623864 204.457159 
L 79.623864 208.818807 
L 80.482386 208.818807 
L 80.482386 210.563466 
L 81.340909 210.563466 
L 81.340909 211.435795 
L 82.199432 211.435795 
L 82.199432 212.308125 
L 83.057955 212.308125 
L 83.057955 214.052784 
L 84.775 214.052784 
L 84.775 214.925114 
L 85.633523 214.925114 
L 85.633523 217.542102 
L 89.067614 217.542102 
L 89.067614 218.414432 
L 89.926136 218.414432 
L 89.926136 222.77608 
L 91.643182 222.77608 
L 91.643182 223.648409 
L 94.21875 223.648409 
L 94.21875 227.137727 
L 95.077273 227.137727 
L 95.077273 230.627045 
L 95.935795 230.627045 
L 95.935795 231.499375 
L 96.794318 231.499375 
L 96.794318 232.371705 
L 98.511364 232.371705 
L 98.511364 238.478011 
L 101.086932 238.478011 
L 101.086932 241.96733 
L 101.945455 241.96733 
L 101.945455 243.711989 
L 104.521023 243.711989 
L 104.521023 245.456648 
L 108.813636 245.456648 
L 108.813636 247.201307 
L 111.389205 247.201307 
L 111.389205 248.073636 
L 113.10625 248.073636 
L 113.10625 248.945966 
L 113.964773 248.945966 
L 113.964773 250.690625 
L 114.823295 250.690625 
L 114.823295 252.435284 
L 115.681818 252.435284 
L 115.681818 253.307614 
L 117.398864 253.307614 
L 117.398864 254.179943 
L 120.832955 254.179943 
L 120.832955 257.669261 
L 125.984091 257.669261 
L 125.984091 258.541591 
L 126.842614 258.541591 
L 126.842614 259.41392 
L 134.569318 259.41392 
L 134.569318 260.28625 
L 136.286364 260.28625 
L 136.286364 261.15858 
L 137.144886 261.15858 
L 137.144886 262.030909 
L 138.861932 262.030909 
L 138.861932 262.903239 
L 143.154545 262.903239 
L 143.154545 263.775568 
L 148.305682 263.775568 
L 148.305682 266.392557 
L 151.739773 266.392557 
L 151.739773 267.264886 
L 153.456818 267.264886 
L 153.456818 268.137216 
L 156.032386 268.137216 
L 156.032386 269.009545 
L 156.890909 269.009545 
L 156.890909 269.881875 
L 158.607955 269.881875 
L 158.607955 272.498864 
L 162.042045 272.498864 
L 162.042045 274.243523 
L 166.334659 274.243523 
L 166.334659 275.115852 
L 167.193182 275.115852 
L 167.193182 275.988182 
L 168.051705 275.988182 
L 168.051705 276.860511 
L 171.485795 276.860511 
L 171.485795 277.732841 
L 178.353977 277.732841 
L 178.353977 278.60517 
L 181.788068 278.60517 
L 181.788068 281.222159 
L 193.807386 281.222159 
L 193.807386 282.094489 
L 198.958523 282.094489 
L 198.958523 282.966818 
L 204.968182 282.966818 
L 204.968182 283.839148 
L 209.260795 283.839148 
L 209.260795 284.711477 
L 211.836364 284.711477 
L 211.836364 285.583807 
L 216.9875 285.583807 
L 216.9875 287.328466 
L 217.846023 287.328466 
L 217.846023 288.200795 
L 226.43125 288.200795 
L 226.43125 289.073125 
L 231.582386 289.073125 
L 231.582386 289.945455 
L 233.299432 289.945455 
L 233.299432 292.562443 
L 240.167614 292.562443 
L 240.167614 293.434773 
L 247.035795 293.434773 
L 247.035795 295.179432 
L 252.186932 295.179432 
L 252.186932 296.051761 
L 255.621023 296.051761 
L 255.621023 297.79642 
L 259.055114 297.79642 
L 259.055114 298.66875 
L 261.630682 298.66875 
L 261.630682 299.54108 
L 277.942614 299.54108 
L 277.942614 300.413409 
L 309.707955 300.413409 
L 309.707955 302.158068 
L 319.151705 302.158068 
L 319.151705 303.030398 
L 323.444318 303.030398 
L 323.444318 303.902727 
L 335.463636 303.902727 
L 335.463636 303.902727 
" clip-path="url(#pacc7433daa)" style="fill: none; stroke: #d62728; stroke-width: 1.5; stroke-linecap: square"/>
   </g>
   <g id="line2d_17">
    <path d="M 60.736364 24.757273 
L 60.736364 27.374261 
L 62.453409 27.374261 
L 62.453409 40.459205 
L 63.311932 40.459205 
L 63.311932 53.544148 
L 64.170455 53.544148 
L 64.170455 56.161136 
L 65.028977 56.161136 
L 65.028977 73.607727 
L 65.8875 73.607727 
L 65.8875 75.352386 
L 66.746023 75.352386 
L 66.746023 76.224716 
L 68.463068 76.224716 
L 68.463068 88.43733 
L 69.321591 88.43733 
L 69.321591 94.543636 
L 70.180114 94.543636 
L 70.180114 103.266932 
L 71.038636 103.266932 
L 71.038636 111.990227 
L 71.897159 111.990227 
L 71.897159 149.500398 
L 72.755682 149.500398 
L 72.755682 159.096023 
L 73.614205 159.096023 
L 73.614205 160.840682 
L 74.472727 160.840682 
L 74.472727 163.45767 
L 75.33125 163.45767 
L 75.33125 168.691648 
L 76.189773 168.691648 
L 76.189773 183.52125 
L 77.048295 183.52125 
L 77.048295 184.39358 
L 78.765341 184.39358 
L 78.765341 187.882898 
L 79.623864 187.882898 
L 79.623864 196.606193 
L 81.340909 196.606193 
L 81.340909 197.478523 
L 83.916477 197.478523 
L 83.916477 199.223182 
L 84.775 199.223182 
L 84.775 203.58483 
L 85.633523 203.58483 
L 85.633523 204.457159 
L 87.350568 204.457159 
L 87.350568 207.074148 
L 88.209091 207.074148 
L 88.209091 209.691136 
L 89.067614 209.691136 
L 89.067614 211.435795 
L 92.501705 211.435795 
L 92.501705 212.308125 
L 95.077273 212.308125 
L 95.077273 213.180455 
L 95.935795 213.180455 
L 95.935795 214.052784 
L 96.794318 214.052784 
L 96.794318 216.669773 
L 97.652841 216.669773 
L 97.652841 218.414432 
L 98.511364 218.414432 
L 98.511364 219.286761 
L 99.369886 219.286761 
L 99.369886 220.159091 
L 103.6625 220.159091 
L 103.6625 226.265398 
L 106.238068 226.265398 
L 106.238068 228.010057 
L 108.813636 228.010057 
L 108.813636 228.882386 
L 110.530682 228.882386 
L 110.530682 229.754716 
L 112.247727 229.754716 
L 112.247727 230.627045 
L 113.10625 230.627045 
L 113.10625 231.499375 
L 120.832955 231.499375 
L 120.832955 232.371705 
L 121.691477 232.371705 
L 121.691477 234.116364 
L 122.55 234.116364 
L 122.55 235.861023 
L 123.408523 235.861023 
L 123.408523 236.733352 
L 124.267045 236.733352 
L 124.267045 237.605682 
L 125.984091 237.605682 
L 125.984091 238.478011 
L 128.559659 238.478011 
L 128.559659 240.22267 
L 132.852273 240.22267 
L 132.852273 241.095 
L 136.286364 241.095 
L 136.286364 241.96733 
L 138.861932 241.96733 
L 138.861932 243.711989 
L 141.4375 243.711989 
L 141.4375 244.584318 
L 144.013068 244.584318 
L 144.013068 245.456648 
L 154.315341 245.456648 
L 154.315341 246.328977 
L 155.173864 246.328977 
L 155.173864 247.201307 
L 156.032386 247.201307 
L 156.032386 250.690625 
L 157.749432 250.690625 
L 157.749432 251.562955 
L 162.042045 251.562955 
L 162.042045 252.435284 
L 162.900568 252.435284 
L 162.900568 253.307614 
L 164.617614 253.307614 
L 164.617614 254.179943 
L 165.476136 254.179943 
L 165.476136 255.052273 
L 166.334659 255.052273 
L 166.334659 255.924602 
L 168.910227 255.924602 
L 168.910227 256.796932 
L 170.627273 256.796932 
L 170.627273 257.669261 
L 172.344318 257.669261 
L 172.344318 258.541591 
L 174.061364 258.541591 
L 174.061364 259.41392 
L 176.636932 259.41392 
L 176.636932 260.28625 
L 177.495455 260.28625 
L 177.495455 261.15858 
L 193.807386 261.15858 
L 193.807386 262.030909 
L 201.534091 262.030909 
L 201.534091 262.903239 
L 203.251136 262.903239 
L 203.251136 263.775568 
L 206.685227 263.775568 
L 206.685227 265.520227 
L 207.54375 265.520227 
L 207.54375 266.392557 
L 208.402273 266.392557 
L 208.402273 271.626534 
L 209.260795 271.626534 
L 209.260795 272.498864 
L 211.836364 272.498864 
L 211.836364 273.371193 
L 216.128977 273.371193 
L 216.128977 275.115852 
L 216.9875 275.115852 
L 216.9875 275.988182 
L 220.421591 275.988182 
L 220.421591 277.732841 
L 222.997159 277.732841 
L 222.997159 278.60517 
L 223.855682 278.60517 
L 223.855682 279.4775 
L 232.440909 279.4775 
L 232.440909 280.34983 
L 239.309091 280.34983 
L 239.309091 282.094489 
L 241.026136 282.094489 
L 241.026136 282.966818 
L 243.601705 282.966818 
L 243.601705 283.839148 
L 247.035795 283.839148 
L 247.035795 284.711477 
L 248.752841 284.711477 
L 248.752841 285.583807 
L 250.469886 285.583807 
L 250.469886 286.456136 
L 259.055114 286.456136 
L 259.055114 287.328466 
L 260.772159 287.328466 
L 260.772159 288.200795 
L 263.347727 288.200795 
L 263.347727 289.073125 
L 265.923295 289.073125 
L 265.923295 289.945455 
L 266.781818 289.945455 
L 266.781818 290.817784 
L 267.640341 290.817784 
L 267.640341 292.562443 
L 274.508523 292.562443 
L 274.508523 294.307102 
L 276.225568 294.307102 
L 276.225568 295.179432 
L 278.801136 295.179432 
L 278.801136 296.051761 
L 301.122727 296.051761 
L 301.122727 296.924091 
L 301.98125 296.924091 
L 301.98125 297.79642 
L 308.849432 297.79642 
L 308.849432 298.66875 
L 315.717614 298.66875 
L 315.717614 300.413409 
L 317.434659 300.413409 
L 317.434659 301.285739 
L 327.736932 301.285739 
L 327.736932 302.158068 
L 328.595455 302.158068 
L 328.595455 303.030398 
L 331.171023 303.030398 
L 331.171023 303.902727 
L 335.463636 303.902727 
L 335.463636 303.902727 
" clip-path="url(#pacc7433daa)" style="fill: none; stroke: #9467bd; stroke-width: 1.5; stroke-linecap: square"/>
   </g>
   <g id="line2d_18">
    <path d="M 60.736364 24.757273 
L 60.736364 26.501932 
L 61.594886 26.501932 
L 61.594886 63.139773 
L 62.453409 63.139773 
L 62.453409 92.798977 
L 63.311932 92.798977 
L 63.311932 97.160625 
L 64.170455 97.160625 
L 64.170455 103.266932 
L 65.028977 103.266932 
L 65.028977 110.245568 
L 65.8875 110.245568 
L 65.8875 117.224205 
L 66.746023 117.224205 
L 66.746023 130.309148 
L 67.604545 130.309148 
L 67.604545 136.415455 
L 68.463068 136.415455 
L 68.463068 138.160114 
L 69.321591 138.160114 
L 69.321591 142.521761 
L 71.038636 142.521761 
L 71.038636 146.01108 
L 71.897159 146.01108 
L 71.897159 148.628068 
L 72.755682 148.628068 
L 72.755682 149.500398 
L 73.614205 149.500398 
L 73.614205 153.862045 
L 74.472727 153.862045 
L 74.472727 154.734375 
L 75.33125 154.734375 
L 75.33125 168.691648 
L 76.189773 168.691648 
L 76.189773 171.308636 
L 77.048295 171.308636 
L 77.048295 172.180966 
L 77.906818 172.180966 
L 77.906818 173.925625 
L 78.765341 173.925625 
L 78.765341 177.414943 
L 79.623864 177.414943 
L 79.623864 178.287273 
L 80.482386 178.287273 
L 80.482386 180.031932 
L 81.340909 180.031932 
L 81.340909 182.64892 
L 82.199432 182.64892 
L 82.199432 183.52125 
L 83.916477 183.52125 
L 83.916477 185.265909 
L 84.775 185.265909 
L 84.775 187.010568 
L 86.492045 187.010568 
L 86.492045 189.627557 
L 88.209091 189.627557 
L 88.209091 193.116875 
L 89.067614 193.116875 
L 89.067614 196.606193 
L 89.926136 196.606193 
L 89.926136 198.350852 
L 90.784659 198.350852 
L 90.784659 205.329489 
L 91.643182 205.329489 
L 91.643182 206.201818 
L 92.501705 206.201818 
L 92.501705 209.691136 
L 93.360227 209.691136 
L 93.360227 210.563466 
L 95.077273 210.563466 
L 95.077273 214.052784 
L 98.511364 214.052784 
L 98.511364 214.925114 
L 99.369886 214.925114 
L 99.369886 220.159091 
L 100.228409 220.159091 
L 100.228409 221.90375 
L 101.086932 221.90375 
L 101.086932 222.77608 
L 101.945455 222.77608 
L 101.945455 224.520739 
L 103.6625 224.520739 
L 103.6625 225.393068 
L 105.379545 225.393068 
L 105.379545 226.265398 
L 106.238068 226.265398 
L 106.238068 227.137727 
L 107.096591 227.137727 
L 107.096591 230.627045 
L 111.389205 230.627045 
L 111.389205 231.499375 
L 112.247727 231.499375 
L 112.247727 234.116364 
L 113.10625 234.116364 
L 113.10625 234.988693 
L 113.964773 234.988693 
L 113.964773 235.861023 
L 114.823295 235.861023 
L 114.823295 236.733352 
L 116.540341 236.733352 
L 116.540341 237.605682 
L 119.974432 237.605682 
L 119.974432 238.478011 
L 120.832955 238.478011 
L 120.832955 239.350341 
L 121.691477 239.350341 
L 121.691477 241.095 
L 125.125568 241.095 
L 125.125568 241.96733 
L 127.701136 241.96733 
L 127.701136 243.711989 
L 128.559659 243.711989 
L 128.559659 245.456648 
L 133.710795 245.456648 
L 133.710795 246.328977 
L 134.569318 246.328977 
L 134.569318 247.201307 
L 138.003409 247.201307 
L 138.003409 248.945966 
L 140.578977 248.945966 
L 140.578977 251.562955 
L 141.4375 251.562955 
L 141.4375 253.307614 
L 142.296023 253.307614 
L 142.296023 255.924602 
L 143.154545 255.924602 
L 143.154545 256.796932 
L 144.013068 256.796932 
L 144.013068 257.669261 
L 146.588636 257.669261 
L 146.588636 261.15858 
L 148.305682 261.15858 
L 148.305682 262.903239 
L 149.164205 262.903239 
L 149.164205 263.775568 
L 150.88125 263.775568 
L 150.88125 264.647898 
L 156.032386 264.647898 
L 156.032386 265.520227 
L 159.466477 265.520227 
L 159.466477 266.392557 
L 160.325 266.392557 
L 160.325 267.264886 
L 162.042045 267.264886 
L 162.042045 269.881875 
L 168.051705 269.881875 
L 168.051705 270.754205 
L 180.071023 270.754205 
L 180.071023 271.626534 
L 186.939205 271.626534 
L 186.939205 272.498864 
L 196.382955 272.498864 
L 196.382955 273.371193 
L 197.241477 273.371193 
L 197.241477 274.243523 
L 198.1 274.243523 
L 198.1 275.115852 
L 198.958523 275.115852 
L 198.958523 275.988182 
L 201.534091 275.988182 
L 201.534091 276.860511 
L 204.109659 276.860511 
L 204.109659 277.732841 
L 204.968182 277.732841 
L 204.968182 279.4775 
L 206.685227 279.4775 
L 206.685227 280.34983 
L 222.138636 280.34983 
L 222.138636 282.094489 
L 226.43125 282.094489 
L 226.43125 282.966818 
L 228.148295 282.966818 
L 228.148295 283.839148 
L 237.592045 283.839148 
L 237.592045 284.711477 
L 241.884659 284.711477 
L 241.884659 285.583807 
L 244.460227 285.583807 
L 244.460227 287.328466 
L 245.31875 287.328466 
L 245.31875 288.200795 
L 249.611364 288.200795 
L 249.611364 289.073125 
L 253.903977 289.073125 
L 253.903977 289.945455 
L 256.479545 289.945455 
L 256.479545 290.817784 
L 257.338068 290.817784 
L 257.338068 291.690114 
L 259.913636 291.690114 
L 259.913636 292.562443 
L 262.489205 292.562443 
L 262.489205 293.434773 
L 268.498864 293.434773 
L 268.498864 294.307102 
L 275.367045 294.307102 
L 275.367045 295.179432 
L 278.801136 295.179432 
L 278.801136 296.051761 
L 282.235227 296.051761 
L 282.235227 296.924091 
L 283.952273 296.924091 
L 283.952273 297.79642 
L 287.386364 297.79642 
L 287.386364 298.66875 
L 288.244886 298.66875 
L 288.244886 299.54108 
L 289.103409 299.54108 
L 289.103409 300.413409 
L 296.830114 300.413409 
L 296.830114 301.285739 
L 306.273864 301.285739 
L 306.273864 302.158068 
L 313.142045 302.158068 
L 313.142045 303.030398 
L 327.736932 303.030398 
L 327.736932 303.902727 
L 335.463636 303.902727 
L 335.463636 303.902727 
" clip-path="url(#pacc7433daa)" style="fill: none; stroke: #8c564b; stroke-width: 1.5; stroke-linecap: square"/>
   </g>
   <g id="line2d_19">
    <path d="M 60.736364 303.902727 
L 335.463636 24.757273 
" clip-path="url(#pacc7433daa)" style="fill: none; stroke-dasharray: 5.55,2.4; stroke-dashoffset: 0; stroke: #000000; stroke-width: 1.5"/>
   </g>
   <g id="patch_3">
    <path d="M 47 317.86 
L 47 10.8 
" style="fill: none; stroke: #000000; stroke-width: 0.8; stroke-linejoin: miter; stroke-linecap: square"/>
   </g>
   <g id="patch_4">
    <path d="M 349.2 317.86 
L 349.2 10.8 
" style="fill: none; stroke: #000000; stroke-width: 0.8; stroke-linejoin: miter; stroke-linecap: square"/>
   </g>
   <g id="patch_5">
    <path d="M 47 317.86 
L 349.2 317.86 
" style="fill: none; stroke: #000000; stroke-width: 0.8; stroke-linejoin: miter; stroke-linecap: square"/>
   </g>
   <g id="patch_6">
    <path d="M 47 10.8 
L 349.2 10.8 
" style="fill: none; stroke: #000000; stroke-width: 0.8; stroke-linejoin: miter; stroke-linecap: square"/>
   </g>
   <g id="legend_1">
    <g id="patch_7">
     <path d="M 184.771875 117.773437 
L 342.2 117.773437 
Q 344.2 117.773437 344.2 115.773437 
L 344.2 17.8 
Q 344.2 15.8 342.2 15.8 
L 184.771875 15.8 
Q 182.771875 15.8 182.771875 17.8 
L 182.771875 115.773437 
Q 182.771875 117.773437 184.771875 117.773437 
z
" style="fill: #ffffff; opacity: 0.8; stroke: #cccccc; stroke-linejoin: miter"/>
    </g>
    <g id="line2d_20">
     <path d="M 186.771875 23.3 
L 196.771875 23.3 
L 206.771875 23.3 
" style="fill: none; stroke: #1f77b4; stroke-width: 1.5; stroke-linecap: square"/>
    </g>
    <g id="text_15">
     <!-- Ours (EER=7.50%) -->
     <g transform="translate(214.771875 26.8) scale(0.1 -0.1)">
      <defs>
       <path id="TimesNewRomanPSMT-4f" d="M 2341 4334 
Q 3166 4334 3770 3707 
Q 4375 3081 4375 2144 
Q 4375 1178 3765 540 
Q 3156 -97 2291 -97 
Q 1416 -97 820 525 
Q 225 1147 225 2134 
Q 225 3144 913 3781 
Q 1509 4334 2341 4334 
z
M 2281 4106 
Q 1713 4106 1369 3684 
Q 941 3159 941 2147 
Q 941 1109 1384 550 
Q 1725 125 2284 125 
Q 2881 125 3270 590 
Q 3659 1056 3659 2059 
Q 3659 3147 3231 3681 
Q 2888 4106 2281 4106 
z
" transform="scale(0.015625)"/>
       <path id="TimesNewRomanPSMT-75" d="M 2709 2863 
L 2709 1128 
Q 2709 631 2732 520 
Q 2756 409 2807 365 
Q 2859 322 2928 322 
Q 3025 322 3147 375 
L 3191 266 
L 2334 -88 
L 2194 -88 
L 2194 519 
Q 1825 119 1631 15 
Q 1438 -88 1222 -88 
Q 981 -88 804 51 
Q 628 191 559 409 
Q 491 628 491 1028 
L 491 2306 
Q 491 2509 447 2587 
Q 403 2666 317 2708 
Q 231 2750 6 2747 
L 6 2863 
L 1009 2863 
L 1009 947 
Q 1009 547 1148 422 
Q 1288 297 1484 297 
Q 1619 297 1789 381 
Q 1959 466 2194 703 
L 2194 2325 
Q 2194 2569 2105 2655 
Q 2016 2741 1734 2747 
L 1734 2863 
L 2709 2863 
z
" transform="scale(0.015625)"/>
       <path id="TimesNewRomanPSMT-72" d="M 1038 2947 
L 1038 2303 
Q 1397 2947 1775 2947 
Q 1947 2947 2059 2842 
Q 2172 2738 2172 2600 
Q 2172 2478 2090 2393 
Q 2009 2309 1897 2309 
Q 1788 2309 1652 2417 
Q 1516 2525 1450 2525 
Q 1394 2525 1328 2463 
Q 1188 2334 1038 2041 
L 1038 669 
Q 1038 431 1097 309 
Q 1138 225 1241 169 
Q 1344 113 1538 113 
L 1538 0 
L 72 0 
L 72 113 
Q 291 113 397 181 
Q 475 231 506 341 
Q 522 394 522 644 
L 522 1753 
Q 522 2253 501 2348 
Q 481 2444 426 2487 
Q 372 2531 291 2531 
Q 194 2531 72 2484 
L 41 2597 
L 906 2947 
L 1038 2947 
z
" transform="scale(0.015625)"/>
       <path id="TimesNewRomanPSMT-45" d="M 1338 4006 
L 1338 2331 
L 2269 2331 
Q 2631 2331 2753 2441 
Q 2916 2584 2934 2947 
L 3050 2947 
L 3050 1472 
L 2934 1472 
Q 2891 1781 2847 1869 
Q 2791 1978 2662 2040 
Q 2534 2103 2269 2103 
L 1338 2103 
L 1338 706 
Q 1338 425 1363 364 
Q 1388 303 1450 267 
Q 1513 231 1688 231 
L 2406 231 
Q 2766 231 2928 281 
Q 3091 331 3241 478 
Q 3434 672 3638 1063 
L 3763 1063 
L 3397 0 
L 131 0 
L 131 116 
L 281 116 
Q 431 116 566 188 
Q 666 238 702 338 
Q 738 438 738 747 
L 738 3500 
Q 738 3903 656 3997 
Q 544 4122 281 4122 
L 131 4122 
L 131 4238 
L 3397 4238 
L 3444 3309 
L 3322 3309 
Q 3256 3644 3176 3769 
Q 3097 3894 2941 3959 
Q 2816 4006 2500 4006 
L 1338 4006 
z
" transform="scale(0.015625)"/>
       <path id="TimesNewRomanPSMT-3d" d="M 116 2759 
L 3488 2759 
L 3488 2503 
L 116 2503 
L 116 2759 
z
M 116 1741 
L 3488 1741 
L 3488 1484 
L 116 1484 
L 116 1741 
z
" transform="scale(0.015625)"/>
       <path id="TimesNewRomanPSMT-37" d="M 644 4238 
L 2916 4238 
L 2916 4119 
L 1503 -88 
L 1153 -88 
L 2419 3728 
L 1253 3728 
Q 900 3728 750 3644 
Q 488 3500 328 3200 
L 238 3234 
L 644 4238 
z
" transform="scale(0.015625)"/>
       <path id="TimesNewRomanPSMT-2e" d="M 800 606 
Q 947 606 1047 504 
Q 1147 403 1147 259 
Q 1147 116 1045 14 
Q 944 -88 800 -88 
Q 656 -88 554 14 
Q 453 116 453 259 
Q 453 406 554 506 
Q 656 606 800 606 
z
" transform="scale(0.015625)"/>
       <path id="TimesNewRomanPSMT-35" d="M 2778 4238 
L 2534 3706 
L 1259 3706 
L 981 3138 
Q 1809 3016 2294 2522 
Q 2709 2097 2709 1522 
Q 2709 1188 2573 903 
Q 2438 619 2231 419 
Q 2025 219 1772 97 
Q 1413 -75 1034 -75 
Q 653 -75 479 54 
Q 306 184 306 341 
Q 306 428 378 495 
Q 450 563 559 563 
Q 641 563 702 538 
Q 763 513 909 409 
Q 1144 247 1384 247 
Q 1750 247 2026 523 
Q 2303 800 2303 1197 
Q 2303 1581 2056 1914 
Q 1809 2247 1375 2428 
Q 1034 2569 447 2591 
L 1259 4238 
L 2778 4238 
z
" transform="scale(0.015625)"/>
      </defs>
      <use xlink:href="#TimesNewRomanPSMT-4f"/>
      <use xlink:href="#TimesNewRomanPSMT-75" x="72.216797"/>
      <use xlink:href="#TimesNewRomanPSMT-72" x="122.216797"/>
      <use xlink:href="#TimesNewRomanPSMT-73" x="155.517578"/>
      <use xlink:href="#TimesNewRomanPSMT-20" x="194.433594"/>
      <use xlink:href="#TimesNewRomanPSMT-28" x="219.433594"/>
      <use xlink:href="#TimesNewRomanPSMT-45" x="252.734375"/>
      <use xlink:href="#TimesNewRomanPSMT-45" x="313.818359"/>
      <use xlink:href="#TimesNewRomanPSMT-52" x="374.902344"/>
      <use xlink:href="#TimesNewRomanPSMT-3d" x="441.601562"/>
      <use xlink:href="#TimesNewRomanPSMT-37" x="497.998047"/>
      <use xlink:href="#TimesNewRomanPSMT-2e" x="547.998047"/>
      <use xlink:href="#TimesNewRomanPSMT-35" x="572.998047"/>
      <use xlink:href="#TimesNewRomanPSMT-30" x="622.998047"/>
      <use xlink:href="#TimesNewRomanPSMT-25" x="672.998047"/>
      <use xlink:href="#TimesNewRomanPSMT-29" x="756.298828"/>
     </g>
    </g>
    <g id="line2d_21">
     <path d="M 186.771875 37.439062 
L 196.771875 37.439062 
L 206.771875 37.439062 
" style="fill: none; stroke: #ff7f0e; stroke-width: 1.5; stroke-linecap: square"/>
    </g>
    <g id="text_16">
     <!-- ResNet18 (EER=7.34%) -->
     <g transform="translate(214.771875 40.939062) scale(0.1 -0.1)">
      <defs>
       <path id="TimesNewRomanPSMT-4e" d="M -84 4238 
L 1066 4238 
L 3656 1059 
L 3656 3503 
Q 3656 3894 3569 3991 
Q 3453 4122 3203 4122 
L 3056 4122 
L 3056 4238 
L 4531 4238 
L 4531 4122 
L 4381 4122 
Q 4113 4122 4000 3959 
Q 3931 3859 3931 3503 
L 3931 -69 
L 3819 -69 
L 1025 3344 
L 1025 734 
Q 1025 344 1109 247 
Q 1228 116 1475 116 
L 1625 116 
L 1625 0 
L 150 0 
L 150 116 
L 297 116 
Q 569 116 681 278 
Q 750 378 750 734 
L 750 3681 
Q 566 3897 470 3965 
Q 375 4034 191 4094 
Q 100 4122 -84 4122 
L -84 4238 
z
" transform="scale(0.015625)"/>
       <path id="TimesNewRomanPSMT-33" d="M 325 3431 
Q 506 3859 782 4092 
Q 1059 4325 1472 4325 
Q 1981 4325 2253 3994 
Q 2459 3747 2459 3466 
Q 2459 3003 1878 2509 
Q 2269 2356 2469 2072 
Q 2669 1788 2669 1403 
Q 2669 853 2319 450 
Q 1863 -75 997 -75 
Q 569 -75 414 31 
Q 259 138 259 259 
Q 259 350 332 419 
Q 406 488 509 488 
Q 588 488 669 463 
Q 722 447 909 348 
Q 1097 250 1169 231 
Q 1284 197 1416 197 
Q 1734 197 1970 444 
Q 2206 691 2206 1028 
Q 2206 1275 2097 1509 
Q 2016 1684 1919 1775 
Q 1784 1900 1550 2001 
Q 1316 2103 1072 2103 
L 972 2103 
L 972 2197 
Q 1219 2228 1467 2375 
Q 1716 2522 1828 2728 
Q 1941 2934 1941 3181 
Q 1941 3503 1739 3701 
Q 1538 3900 1238 3900 
Q 753 3900 428 3381 
L 325 3431 
z
" transform="scale(0.015625)"/>
      </defs>
      <use xlink:href="#TimesNewRomanPSMT-52"/>
      <use xlink:href="#TimesNewRomanPSMT-65" x="66.699219"/>
      <use xlink:href="#TimesNewRomanPSMT-73" x="111.083984"/>
      <use xlink:href="#TimesNewRomanPSMT-4e" x="150"/>
      <use xlink:href="#TimesNewRomanPSMT-65" x="222.216797"/>
      <use xlink:href="#TimesNewRomanPSMT-74" x="266.601562"/>
      <use xlink:href="#TimesNewRomanPSMT-31" x="294.384766"/>
      <use xlink:href="#TimesNewRomanPSMT-38" x="344.384766"/>
      <use xlink:href="#TimesNewRomanPSMT-20" x="394.384766"/>
      <use xlink:href="#TimesNewRomanPSMT-28" x="419.384766"/>
      <use xlink:href="#TimesNewRomanPSMT-45" x="452.685547"/>
      <use xlink:href="#TimesNewRomanPSMT-45" x="513.769531"/>
      <use xlink:href="#TimesNewRomanPSMT-52" x="574.853516"/>
      <use xlink:href="#TimesNewRomanPSMT-3d" x="641.552734"/>
      <use xlink:href="#TimesNewRomanPSMT-37" x="697.949219"/>
      <use xlink:href="#TimesNewRomanPSMT-2e" x="747.949219"/>
      <use xlink:href="#TimesNewRomanPSMT-33" x="772.949219"/>
      <use xlink:href="#TimesNewRomanPSMT-34" x="822.949219"/>
      <use xlink:href="#TimesNewRomanPSMT-25" x="872.949219"/>
      <use xlink:href="#TimesNewRomanPSMT-29" x="956.25"/>
     </g>
    </g>
    <g id="line2d_22">
     <path d="M 186.771875 51.578125 
L 196.771875 51.578125 
L 206.771875 51.578125 
" style="fill: none; stroke: #2ca02c; stroke-width: 1.5; stroke-linecap: square"/>
    </g>
    <g id="text_17">
     <!-- MobileNetV1 (EER=23.12%) -->
     <g transform="translate(214.771875 55.078125) scale(0.1 -0.1)">
      <defs>
       <path id="TimesNewRomanPSMT-4d" d="M 2619 0 
L 981 3566 
L 981 734 
Q 981 344 1066 247 
Q 1181 116 1431 116 
L 1581 116 
L 1581 0 
L 106 0 
L 106 116 
L 256 116 
Q 525 116 638 278 
Q 706 378 706 734 
L 706 3503 
Q 706 3784 644 3909 
Q 600 4000 483 4061 
Q 366 4122 106 4122 
L 106 4238 
L 1306 4238 
L 2844 922 
L 4356 4238 
L 5556 4238 
L 5556 4122 
L 5409 4122 
Q 5138 4122 5025 3959 
Q 4956 3859 4956 3503 
L 4956 734 
Q 4956 344 5044 247 
Q 5159 116 5409 116 
L 5556 116 
L 5556 0 
L 3756 0 
L 3756 116 
L 3906 116 
Q 4178 116 4288 278 
Q 4356 378 4356 734 
L 4356 3566 
L 2722 0 
L 2619 0 
z
" transform="scale(0.015625)"/>
       <path id="TimesNewRomanPSMT-6f" d="M 1600 2947 
Q 2250 2947 2644 2453 
Q 2978 2031 2978 1484 
Q 2978 1100 2793 706 
Q 2609 313 2286 112 
Q 1963 -88 1566 -88 
Q 919 -88 538 428 
Q 216 863 216 1403 
Q 216 1797 411 2186 
Q 606 2575 925 2761 
Q 1244 2947 1600 2947 
z
M 1503 2744 
Q 1338 2744 1170 2645 
Q 1003 2547 900 2300 
Q 797 2053 797 1666 
Q 797 1041 1045 587 
Q 1294 134 1700 134 
Q 2003 134 2200 384 
Q 2397 634 2397 1244 
Q 2397 2006 2069 2444 
Q 1847 2744 1503 2744 
z
" transform="scale(0.015625)"/>
       <path id="TimesNewRomanPSMT-62" d="M 984 2369 
Q 1400 2947 1881 2947 
Q 2322 2947 2650 2570 
Q 2978 2194 2978 1541 
Q 2978 778 2472 313 
Q 2038 -88 1503 -88 
Q 1253 -88 995 3 
Q 738 94 469 275 
L 469 3241 
Q 469 3728 445 3840 
Q 422 3953 372 3993 
Q 322 4034 247 4034 
Q 159 4034 28 3984 
L -16 4094 
L 844 4444 
L 984 4444 
L 984 2369 
z
M 984 2169 
L 984 456 
Q 1144 300 1314 220 
Q 1484 141 1663 141 
Q 1947 141 2192 453 
Q 2438 766 2438 1363 
Q 2438 1913 2192 2208 
Q 1947 2503 1634 2503 
Q 1469 2503 1303 2419 
Q 1178 2356 984 2169 
z
" transform="scale(0.015625)"/>
       <path id="TimesNewRomanPSMT-69" d="M 928 4444 
Q 1059 4444 1151 4351 
Q 1244 4259 1244 4128 
Q 1244 3997 1151 3903 
Q 1059 3809 928 3809 
Q 797 3809 703 3903 
Q 609 3997 609 4128 
Q 609 4259 701 4351 
Q 794 4444 928 4444 
z
M 1188 2947 
L 1188 647 
Q 1188 378 1227 289 
Q 1266 200 1342 156 
Q 1419 113 1622 113 
L 1622 0 
L 231 0 
L 231 113 
Q 441 113 512 153 
Q 584 194 626 287 
Q 669 381 669 647 
L 669 1750 
Q 669 2216 641 2353 
Q 619 2453 572 2492 
Q 525 2531 444 2531 
Q 356 2531 231 2484 
L 188 2597 
L 1050 2947 
L 1188 2947 
z
" transform="scale(0.015625)"/>
       <path id="TimesNewRomanPSMT-56" d="M 4544 4238 
L 4544 4122 
Q 4319 4081 4203 3978 
Q 4038 3825 3909 3509 
L 2431 -97 
L 2316 -97 
L 728 3556 
Q 606 3838 556 3900 
Q 478 3997 364 4051 
Q 250 4106 56 4122 
L 56 4238 
L 1788 4238 
L 1788 4122 
Q 1494 4094 1406 4022 
Q 1319 3950 1319 3838 
Q 1319 3681 1463 3350 
L 2541 866 
L 3541 3319 
Q 3688 3681 3688 3822 
Q 3688 3913 3597 3995 
Q 3506 4078 3291 4113 
Q 3275 4116 3238 4122 
L 3238 4238 
L 4544 4238 
z
" transform="scale(0.015625)"/>
      </defs>
      <use xlink:href="#TimesNewRomanPSMT-4d"/>
      <use xlink:href="#TimesNewRomanPSMT-6f" x="88.916016"/>
      <use xlink:href="#TimesNewRomanPSMT-62" x="138.916016"/>
      <use xlink:href="#TimesNewRomanPSMT-69" x="188.916016"/>
      <use xlink:href="#TimesNewRomanPSMT-6c" x="216.699219"/>
      <use xlink:href="#TimesNewRomanPSMT-65" x="244.482422"/>
      <use xlink:href="#TimesNewRomanPSMT-4e" x="288.867188"/>
      <use xlink:href="#TimesNewRomanPSMT-65" x="361.083984"/>
      <use xlink:href="#TimesNewRomanPSMT-74" x="405.46875"/>
      <use xlink:href="#TimesNewRomanPSMT-56" x="433.251953"/>
      <use xlink:href="#TimesNewRomanPSMT-31" x="505.46875"/>
      <use xlink:href="#TimesNewRomanPSMT-20" x="555.46875"/>
      <use xlink:href="#TimesNewRomanPSMT-28" x="580.46875"/>
      <use xlink:href="#TimesNewRomanPSMT-45" x="613.769531"/>
      <use xlink:href="#TimesNewRomanPSMT-45" x="674.853516"/>
      <use xlink:href="#TimesNewRomanPSMT-52" x="735.9375"/>
      <use xlink:href="#TimesNewRomanPSMT-3d" x="802.636719"/>
      <use xlink:href="#TimesNewRomanPSMT-32" x="859.033203"/>
      <use xlink:href="#TimesNewRomanPSMT-33" x="909.033203"/>
      <use xlink:href="#TimesNewRomanPSMT-2e" x="959.033203"/>
      <use xlink:href="#TimesNewRomanPSMT-31" x="984.033203"/>
      <use xlink:href="#TimesNewRomanPSMT-32" x="1034.033203"/>
      <use xlink:href="#TimesNewRomanPSMT-25" x="1084.033203"/>
      <use xlink:href="#TimesNewRomanPSMT-29" x="1167.333984"/>
     </g>
    </g>
    <g id="line2d_23">
     <path d="M 186.771875 65.717187 
L 196.771875 65.717187 
L 206.771875 65.717187 
" style="fill: none; stroke: #d62728; stroke-width: 1.5; stroke-linecap: square"/>
    </g>
    <g id="text_18">
     <!-- MobileNetV2 (EER=19.22%) -->
     <g transform="translate(214.771875 69.217187) scale(0.1 -0.1)">
      <defs>
       <path id="TimesNewRomanPSMT-39" d="M 338 -88 
L 338 28 
Q 744 34 1094 217 
Q 1444 400 1770 856 
Q 2097 1313 2225 1859 
Q 1734 1544 1338 1544 
Q 891 1544 572 1889 
Q 253 2234 253 2806 
Q 253 3363 572 3797 
Q 956 4325 1575 4325 
Q 2097 4325 2469 3894 
Q 2925 3359 2925 2575 
Q 2925 1869 2578 1258 
Q 2231 647 1613 244 
Q 1109 -88 516 -88 
L 338 -88 
z
M 2275 2091 
Q 2331 2497 2331 2741 
Q 2331 3044 2228 3395 
Q 2125 3747 1936 3934 
Q 1747 4122 1506 4122 
Q 1228 4122 1018 3872 
Q 809 3622 809 3128 
Q 809 2469 1088 2097 
Q 1291 1828 1588 1828 
Q 1731 1828 1928 1897 
Q 2125 1966 2275 2091 
z
" transform="scale(0.015625)"/>
      </defs>
      <use xlink:href="#TimesNewRomanPSMT-4d"/>
      <use xlink:href="#TimesNewRomanPSMT-6f" x="88.916016"/>
      <use xlink:href="#TimesNewRomanPSMT-62" x="138.916016"/>
      <use xlink:href="#TimesNewRomanPSMT-69" x="188.916016"/>
      <use xlink:href="#TimesNewRomanPSMT-6c" x="216.699219"/>
      <use xlink:href="#TimesNewRomanPSMT-65" x="244.482422"/>
      <use xlink:href="#TimesNewRomanPSMT-4e" x="288.867188"/>
      <use xlink:href="#TimesNewRomanPSMT-65" x="361.083984"/>
      <use xlink:href="#TimesNewRomanPSMT-74" x="405.46875"/>
      <use xlink:href="#TimesNewRomanPSMT-56" x="433.251953"/>
      <use xlink:href="#TimesNewRomanPSMT-32" x="505.46875"/>
      <use xlink:href="#TimesNewRomanPSMT-20" x="555.46875"/>
      <use xlink:href="#TimesNewRomanPSMT-28" x="580.46875"/>
      <use xlink:href="#TimesNewRomanPSMT-45" x="613.769531"/>
      <use xlink:href="#TimesNewRomanPSMT-45" x="674.853516"/>
      <use xlink:href="#TimesNewRomanPSMT-52" x="735.9375"/>
      <use xlink:href="#TimesNewRomanPSMT-3d" x="802.636719"/>
      <use xlink:href="#TimesNewRomanPSMT-31" x="859.033203"/>
      <use xlink:href="#TimesNewRomanPSMT-39" x="909.033203"/>
      <use xlink:href="#TimesNewRomanPSMT-2e" x="959.033203"/>
      <use xlink:href="#TimesNewRomanPSMT-32" x="984.033203"/>
      <use xlink:href="#TimesNewRomanPSMT-32" x="1034.033203"/>
      <use xlink:href="#TimesNewRomanPSMT-25" x="1084.033203"/>
      <use xlink:href="#TimesNewRomanPSMT-29" x="1167.333984"/>
     </g>
    </g>
    <g id="line2d_24">
     <path d="M 186.771875 79.85625 
L 196.771875 79.85625 
L 206.771875 79.85625 
" style="fill: none; stroke: #9467bd; stroke-width: 1.5; stroke-linecap: square"/>
    </g>
    <g id="text_19">
     <!-- MobileNetV3 (EER=23.75%) -->
     <g transform="translate(214.771875 83.35625) scale(0.1 -0.1)">
      <use xlink:href="#TimesNewRomanPSMT-4d"/>
      <use xlink:href="#TimesNewRomanPSMT-6f" x="88.916016"/>
      <use xlink:href="#TimesNewRomanPSMT-62" x="138.916016"/>
      <use xlink:href="#TimesNewRomanPSMT-69" x="188.916016"/>
      <use xlink:href="#TimesNewRomanPSMT-6c" x="216.699219"/>
      <use xlink:href="#TimesNewRomanPSMT-65" x="244.482422"/>
      <use xlink:href="#TimesNewRomanPSMT-4e" x="288.867188"/>
      <use xlink:href="#TimesNewRomanPSMT-65" x="361.083984"/>
      <use xlink:href="#TimesNewRomanPSMT-74" x="405.46875"/>
      <use xlink:href="#TimesNewRomanPSMT-56" x="433.251953"/>
      <use xlink:href="#TimesNewRomanPSMT-33" x="505.46875"/>
      <use xlink:href="#TimesNewRomanPSMT-20" x="555.46875"/>
      <use xlink:href="#TimesNewRomanPSMT-28" x="580.46875"/>
      <use xlink:href="#TimesNewRomanPSMT-45" x="613.769531"/>
      <use xlink:href="#TimesNewRomanPSMT-45" x="674.853516"/>
      <use xlink:href="#TimesNewRomanPSMT-52" x="735.9375"/>
      <use xlink:href="#TimesNewRomanPSMT-3d" x="802.636719"/>
      <use xlink:href="#TimesNewRomanPSMT-32" x="859.033203"/>
      <use xlink:href="#TimesNewRomanPSMT-33" x="909.033203"/>
      <use xlink:href="#TimesNewRomanPSMT-2e" x="959.033203"/>
      <use xlink:href="#TimesNewRomanPSMT-37" x="984.033203"/>
      <use xlink:href="#TimesNewRomanPSMT-35" x="1034.033203"/>
      <use xlink:href="#TimesNewRomanPSMT-25" x="1084.033203"/>
      <use xlink:href="#TimesNewRomanPSMT-29" x="1167.333984"/>
     </g>
    </g>
    <g id="line2d_25">
     <path d="M 186.771875 93.995312 
L 196.771875 93.995312 
L 206.771875 93.995312 
" style="fill: none; stroke: #8c564b; stroke-width: 1.5; stroke-linecap: square"/>
    </g>
    <g id="text_20">
     <!-- EfficientNetB0 (EER=22.34%) -->
     <g transform="translate(214.771875 97.495312) scale(0.1 -0.1)">
      <defs>
       <path id="TimesNewRomanPSMT-66" d="M 1319 2638 
L 1319 756 
Q 1319 356 1406 250 
Q 1522 113 1716 113 
L 1975 113 
L 1975 0 
L 266 0 
L 266 113 
L 394 113 
Q 519 113 622 175 
Q 725 238 764 344 
Q 803 450 803 756 
L 803 2638 
L 247 2638 
L 247 2863 
L 803 2863 
L 803 3050 
Q 803 3478 940 3775 
Q 1078 4072 1361 4255 
Q 1644 4438 1997 4438 
Q 2325 4438 2600 4225 
Q 2781 4084 2781 3909 
Q 2781 3816 2700 3733 
Q 2619 3650 2525 3650 
Q 2453 3650 2373 3701 
Q 2294 3753 2178 3923 
Q 2063 4094 1966 4153 
Q 1869 4213 1750 4213 
Q 1606 4213 1506 4136 
Q 1406 4059 1362 3898 
Q 1319 3738 1319 3069 
L 1319 2863 
L 2056 2863 
L 2056 2638 
L 1319 2638 
z
" transform="scale(0.015625)"/>
       <path id="TimesNewRomanPSMT-6e" d="M 1034 2341 
Q 1538 2947 1994 2947 
Q 2228 2947 2397 2830 
Q 2566 2713 2666 2444 
Q 2734 2256 2734 1869 
L 2734 647 
Q 2734 375 2778 278 
Q 2813 200 2889 156 
Q 2966 113 3172 113 
L 3172 0 
L 1756 0 
L 1756 113 
L 1816 113 
Q 2016 113 2095 173 
Q 2175 234 2206 353 
Q 2219 400 2219 647 
L 2219 1819 
Q 2219 2209 2117 2386 
Q 2016 2563 1775 2563 
Q 1403 2563 1034 2156 
L 1034 647 
Q 1034 356 1069 288 
Q 1113 197 1189 155 
Q 1266 113 1500 113 
L 1500 0 
L 84 0 
L 84 113 
L 147 113 
Q 366 113 442 223 
Q 519 334 519 647 
L 519 1709 
Q 519 2225 495 2337 
Q 472 2450 423 2490 
Q 375 2531 294 2531 
Q 206 2531 84 2484 
L 38 2597 
L 900 2947 
L 1034 2947 
L 1034 2341 
z
" transform="scale(0.015625)"/>
       <path id="TimesNewRomanPSMT-42" d="M 2956 2163 
Q 3397 2069 3616 1863 
Q 3919 1575 3919 1159 
Q 3919 844 3719 555 
Q 3519 266 3170 133 
Q 2822 0 2106 0 
L 106 0 
L 106 116 
L 266 116 
Q 531 116 647 284 
Q 719 394 719 750 
L 719 3488 
Q 719 3881 628 3984 
Q 506 4122 266 4122 
L 106 4122 
L 106 4238 
L 1938 4238 
Q 2450 4238 2759 4163 
Q 3228 4050 3475 3764 
Q 3722 3478 3722 3106 
Q 3722 2788 3528 2536 
Q 3334 2284 2956 2163 
z
M 1319 2331 
Q 1434 2309 1582 2298 
Q 1731 2288 1909 2288 
Q 2366 2288 2595 2386 
Q 2825 2484 2947 2687 
Q 3069 2891 3069 3131 
Q 3069 3503 2766 3765 
Q 2463 4028 1881 4028 
Q 1569 4028 1319 3959 
L 1319 2331 
z
M 1319 306 
Q 1681 222 2034 222 
Q 2600 222 2897 476 
Q 3194 731 3194 1106 
Q 3194 1353 3059 1581 
Q 2925 1809 2622 1940 
Q 2319 2072 1872 2072 
Q 1678 2072 1540 2065 
Q 1403 2059 1319 2044 
L 1319 306 
z
" transform="scale(0.015625)"/>
      </defs>
      <use xlink:href="#TimesNewRomanPSMT-45"/>
      <use xlink:href="#TimesNewRomanPSMT-66" x="61.083984"/>
      <use xlink:href="#TimesNewRomanPSMT-66" x="92.634766"/>
      <use xlink:href="#TimesNewRomanPSMT-69" x="125.935547"/>
      <use xlink:href="#TimesNewRomanPSMT-63" x="153.71875"/>
      <use xlink:href="#TimesNewRomanPSMT-69" x="198.103516"/>
      <use xlink:href="#TimesNewRomanPSMT-65" x="225.886719"/>
      <use xlink:href="#TimesNewRomanPSMT-6e" x="270.271484"/>
      <use xlink:href="#TimesNewRomanPSMT-74" x="320.271484"/>
      <use xlink:href="#TimesNewRomanPSMT-4e" x="348.054688"/>
      <use xlink:href="#TimesNewRomanPSMT-65" x="420.271484"/>
      <use xlink:href="#TimesNewRomanPSMT-74" x="464.65625"/>
      <use xlink:href="#TimesNewRomanPSMT-42" x="492.439453"/>
      <use xlink:href="#TimesNewRomanPSMT-30" x="559.138672"/>
      <use xlink:href="#TimesNewRomanPSMT-20" x="609.138672"/>
      <use xlink:href="#TimesNewRomanPSMT-28" x="634.138672"/>
      <use xlink:href="#TimesNewRomanPSMT-45" x="667.439453"/>
      <use xlink:href="#TimesNewRomanPSMT-45" x="728.523438"/>
      <use xlink:href="#TimesNewRomanPSMT-52" x="789.607422"/>
      <use xlink:href="#TimesNewRomanPSMT-3d" x="856.306641"/>
      <use xlink:href="#TimesNewRomanPSMT-32" x="912.703125"/>
      <use xlink:href="#TimesNewRomanPSMT-32" x="962.703125"/>
      <use xlink:href="#TimesNewRomanPSMT-2e" x="1012.703125"/>
      <use xlink:href="#TimesNewRomanPSMT-33" x="1037.703125"/>
      <use xlink:href="#TimesNewRomanPSMT-34" x="1087.703125"/>
      <use xlink:href="#TimesNewRomanPSMT-25" x="1137.703125"/>
      <use xlink:href="#TimesNewRomanPSMT-29" x="1221.003906"/>
     </g>
    </g>
    <g id="line2d_26">
     <defs>
      <path id="m21502825dc" d="M 0 2.5 
C 0.663008 2.5 1.29895 2.236584 1.767767 1.767767 
C 2.236584 1.29895 2.5 0.663008 2.5 0 
C 2.5 -0.663008 2.236584 -1.29895 1.767767 -1.767767 
C 1.29895 -2.236584 0.663008 -2.5 0 -2.5 
C -0.663008 -2.5 -1.29895 -2.236584 -1.767767 -1.767767 
C -2.236584 -1.29895 -2.5 -0.663008 -2.5 0 
C -2.5 0.663008 -2.236584 1.29895 -1.767767 1.767767 
C -1.29895 2.236584 -0.663008 2.5 0 2.5 
z
" style="stroke: #000000"/>
     </defs>
     <g>
      <use xlink:href="#m21502825dc" x="196.771875" y="108.134375" style="stroke: #000000"/>
     </g>
    </g>
    <g id="text_21">
     <!-- EER -->
     <g transform="translate(214.771875 111.634375) scale(0.1 -0.1)">
      <use xlink:href="#TimesNewRomanPSMT-45"/>
      <use xlink:href="#TimesNewRomanPSMT-45" x="61.083984"/>
      <use xlink:href="#TimesNewRomanPSMT-52" x="122.167969"/>
     </g>
    </g>
   </g>
   <g id="PathCollection_1">
    <defs>
     <path id="m9b61b0a1c5" d="M 0 1.936492 
C 0.513564 1.936492 1.006162 1.732451 1.369306 1.369306 
C 1.732451 1.006162 1.936492 0.513564 1.936492 0 
C 1.936492 -0.513564 1.732451 -1.006162 1.369306 -1.369306 
C 1.006162 -1.732451 0.513564 -1.936492 0 -1.936492 
C -0.513564 -1.936492 -1.006162 -1.732451 -1.369306 -1.369306 
C -1.732451 -1.006162 -1.936492 -0.513564 -1.936492 0 
C -1.936492 0.513564 -1.732451 1.006162 -1.369306 1.369306 
C -1.006162 1.732451 -0.513564 1.936492 0 1.936492 
z
" style="stroke: #000000"/>
    </defs>
    <g clip-path="url(#pacc7433daa)">
     <use xlink:href="#m9b61b0a1c5" x="81.340909" y="282.966818" style="stroke: #000000"/>
    </g>
   </g>
   <g id="PathCollection_2">
    <g clip-path="url(#pacc7433daa)">
     <use xlink:href="#m9b61b0a1c5" x="80.911648" y="283.402983" style="stroke: #000000"/>
    </g>
   </g>
   <g id="PathCollection_3">
    <g clip-path="url(#pacc7433daa)">
     <use xlink:href="#m9b61b0a1c5" x="124.267045" y="239.350341" style="stroke: #000000"/>
    </g>
   </g>
   <g id="PathCollection_4">
    <g clip-path="url(#pacc7433daa)">
     <use xlink:href="#m9b61b0a1c5" x="113.535511" y="250.25446" style="stroke: #000000"/>
    </g>
   </g>
   <g id="PathCollection_5">
    <g clip-path="url(#pacc7433daa)">
     <use xlink:href="#m9b61b0a1c5" x="125.984091" y="237.605682" style="stroke: #000000"/>
    </g>
   </g>
   <g id="PathCollection_6">
    <g clip-path="url(#pacc7433daa)">
     <use xlink:href="#m9b61b0a1c5" x="122.120739" y="241.531165" style="stroke: #000000"/>
    </g>
   </g>
  </g>
 </g>
 <defs>
  <clipPath id="pacc7433daa">
   <rect x="47" y="10.8" width="302.2" height="307.06"/>
  </clipPath>
 </defs>
</svg>
