<?xml version="1.0" encoding="UTF-8"?>
<!DOCTYPE svg PUBLIC "-//W3C//DTD SVG 1.1//EN" "http://www.w3.org/Graphics/SVG/1.1/DTD/svg11.dtd">
<svg xmlns="http://www.w3.org/2000/svg" style="background: transparent; background-color: transparent; color-scheme: light dark;" xmlns:xlink="http://www.w3.org/1999/xlink" version="1.1" width="924px" height="1270px" viewBox="-0.5 -0.5 924 1270"><defs/><g><g><path d="M 250.61 0 L 289.39 0 C 306.29 0 320 11.19 320 25 C 320 38.81 306.29 50 289.39 50 L 250.61 50 C 233.71 50 220 38.81 220 25 C 220 11.19 233.71 0 250.61 0 Z" fill="none" stroke="#000000" stroke-miterlimit="10" pointer-events="all" style="stroke: light-dark(rgb(0, 0, 0), rgb(255, 255, 255));"/></g><g><g fill="#000000" font-family="&quot;Times New Roman&quot;" text-anchor="middle" font-size="14px" style="fill: light-dark(rgb(0, 0, 0), rgb(255, 255, 255));"><text x="269.5" y="30.5">Start</text></g></g><g><rect x="172.5" y="383" width="195" height="40" rx="7" ry="7" fill="none" stroke="#000000" pointer-events="all" style="stroke: light-dark(rgb(0, 0, 0), rgb(255, 255, 255));"/></g><g><g fill="#000000" font-family="&quot;Times New Roman&quot;" font-size="14px" style="fill: light-dark(rgb(0, 0, 0), rgb(255, 255, 255));"><text x="174" y="408.5">      Fold Cross Validation     </text></g></g><g><path d="M 93.5 513 L 61 513 Q 55 513 57.51 507.55 L 75.49 468.45 Q 78 463 84 463 L 149 463 Q 155 463 152.49 468.45 L 134.51 507.55 Q 132 513 126 513 Z" fill="none" stroke="#000000" stroke-miterlimit="10" pointer-events="all" style="stroke: light-dark(rgb(0, 0, 0), rgb(255, 255, 255));"/></g><g><g fill="#000000" font-family="&quot;Times New Roman&quot;" text-anchor="middle" font-size="14px" style="fill: light-dark(rgb(0, 0, 0), rgb(255, 255, 255));"><text x="104.5" y="485">Train </text><text x="104.5" y="502">Data</text></g></g><g><path d="M 193.5 513 L 161 513 Q 155 513 157.51 507.55 L 175.49 468.45 Q 178 463 184 463 L 249 463 Q 255 463 252.49 468.45 L 234.51 507.55 Q 232 513 226 513 Z" fill="none" stroke="#000000" stroke-miterlimit="10" pointer-events="all" style="stroke: light-dark(rgb(0, 0, 0), rgb(255, 255, 255));"/></g><g><g fill="#000000" font-family="&quot;Times New Roman&quot;" text-anchor="middle" font-size="14px" style="fill: light-dark(rgb(0, 0, 0), rgb(255, 255, 255));"><text x="204.5" y="485">Train </text><text x="204.5" y="502">Label</text></g></g><g><path d="M 293.5 513 L 261 513 Q 255 513 257.51 507.55 L 275.49 468.45 Q 278 463 284 463 L 349 463 Q 355 463 352.49 468.45 L 334.51 507.55 Q 332 513 326 513 Z" fill="none" stroke="#000000" stroke-miterlimit="10" pointer-events="all" style="stroke: light-dark(rgb(0, 0, 0), rgb(255, 255, 255));"/></g><g><g fill="#000000" font-family="&quot;Times New Roman&quot;" text-anchor="middle" font-size="14px" style="fill: light-dark(rgb(0, 0, 0), rgb(255, 255, 255));"><text x="304.5" y="485">Validation</text><text x="304.5" y="502">Data</text></g></g><g><path d="M 393.5 513 L 361 513 Q 355 513 357.51 507.55 L 375.49 468.45 Q 378 463 384 463 L 449 463 Q 455 463 452.49 468.45 L 434.51 507.55 Q 432 513 426 513 Z" fill="none" stroke="#000000" stroke-miterlimit="10" pointer-events="all" style="stroke: light-dark(rgb(0, 0, 0), rgb(255, 255, 255));"/></g><g><g fill="#000000" font-family="&quot;Times New Roman&quot;" text-anchor="middle" font-size="14px" style="fill: light-dark(rgb(0, 0, 0), rgb(255, 255, 255));"><text x="404.5" y="485">Validation</text><text x="404.5" y="502">Label</text></g></g><g><path d="M 270 423 L 270 443 L 105 443 L 105 456.63" fill="none" stroke="#000000" stroke-miterlimit="10" pointer-events="stroke" style="stroke: light-dark(rgb(0, 0, 0), rgb(255, 255, 255));"/><path d="M 105 461.88 L 101.5 454.88 L 105 456.63 L 108.5 454.88 Z" fill="#000000" stroke="#000000" stroke-miterlimit="10" pointer-events="all" style="fill: light-dark(rgb(0, 0, 0), rgb(255, 255, 255)); stroke: light-dark(rgb(0, 0, 0), rgb(255, 255, 255));"/></g><g><path d="M 270 423 L 270 443 L 205 443 L 205 456.63" fill="none" stroke="#000000" stroke-miterlimit="10" pointer-events="stroke" style="stroke: light-dark(rgb(0, 0, 0), rgb(255, 255, 255));"/><path d="M 205 461.88 L 201.5 454.88 L 205 456.63 L 208.5 454.88 Z" fill="#000000" stroke="#000000" stroke-miterlimit="10" pointer-events="all" style="fill: light-dark(rgb(0, 0, 0), rgb(255, 255, 255)); stroke: light-dark(rgb(0, 0, 0), rgb(255, 255, 255));"/></g><g><path d="M 270 423 L 270 443 L 305 443 L 305 456.63" fill="none" stroke="#000000" stroke-miterlimit="10" pointer-events="stroke" style="stroke: light-dark(rgb(0, 0, 0), rgb(255, 255, 255));"/><path d="M 305 461.88 L 301.5 454.88 L 305 456.63 L 308.5 454.88 Z" fill="#000000" stroke="#000000" stroke-miterlimit="10" pointer-events="all" style="fill: light-dark(rgb(0, 0, 0), rgb(255, 255, 255)); stroke: light-dark(rgb(0, 0, 0), rgb(255, 255, 255));"/></g><g><path d="M 270 423 L 270 443 L 405 443 L 405 456.63" fill="none" stroke="#000000" stroke-miterlimit="10" pointer-events="stroke" style="stroke: light-dark(rgb(0, 0, 0), rgb(255, 255, 255));"/><path d="M 405 461.88 L 401.5 454.88 L 405 456.63 L 408.5 454.88 Z" fill="#000000" stroke="#000000" stroke-miterlimit="10" pointer-events="all" style="fill: light-dark(rgb(0, 0, 0), rgb(255, 255, 255)); stroke: light-dark(rgb(0, 0, 0), rgb(255, 255, 255));"/></g><g><path d="M 234.5 255.33 L 234.5 208.67 C 234.5 202.22 250.39 197 270 197 C 289.61 197 305.5 202.22 305.5 208.67 L 305.5 255.33 C 305.5 261.78 289.61 267 270 267 C 250.39 267 234.5 261.78 234.5 255.33 Z" fill="none" stroke="#000000" stroke-miterlimit="10" pointer-events="all" style="stroke: light-dark(rgb(0, 0, 0), rgb(255, 255, 255));"/><path d="M 234.5 208.67 C 234.5 215.11 250.39 220.33 270 220.33 C 289.61 220.33 305.5 215.11 305.5 208.67" fill="none" stroke="#000000" stroke-miterlimit="10" pointer-events="all" style="stroke: light-dark(rgb(0, 0, 0), rgb(255, 255, 255));"/></g><g><g fill="#000000" font-family="&quot;Times New Roman&quot;" text-anchor="middle" font-size="14px" style="fill: light-dark(rgb(0, 0, 0), rgb(255, 255, 255));"><text x="269.5" y="246">Databases</text></g></g><g><path d="M 269.8 50 L 269.95 70.63" fill="none" stroke="#000000" stroke-miterlimit="10" pointer-events="stroke" style="stroke: light-dark(rgb(0, 0, 0), rgb(255, 255, 255));"/><path d="M 269.99 75.88 L 266.44 68.91 L 269.95 70.63 L 273.44 68.86 Z" fill="#000000" stroke="#000000" stroke-miterlimit="10" pointer-events="all" style="fill: light-dark(rgb(0, 0, 0), rgb(255, 255, 255)); stroke: light-dark(rgb(0, 0, 0), rgb(255, 255, 255));"/></g><g><rect x="57" y="568" width="200" height="70" rx="7" ry="7" fill="none" stroke="#000000" pointer-events="all" style="stroke: light-dark(rgb(0, 0, 0), rgb(255, 255, 255));"/></g><g><g fill="#000000" font-family="&quot;Times New Roman&quot;" text-anchor="middle" font-size="14px" style="fill: light-dark(rgb(0, 0, 0), rgb(255, 255, 255));"><text x="156.5" y="591.5">Build Siamese network </text><text x="156.5" y="608.5">(constrastive loss, margin = 1)</text><text x="156.5" y="625.5">and calculate GFLOPs</text></g></g><g><path d="M 105 513 L 105 541 L 157 541 L 157 561.63" fill="none" stroke="#000000" stroke-miterlimit="10" pointer-events="stroke" style="stroke: light-dark(rgb(0, 0, 0), rgb(255, 255, 255));"/><path d="M 157 566.88 L 153.5 559.88 L 157 561.63 L 160.5 559.88 Z" fill="#000000" stroke="#000000" stroke-miterlimit="10" pointer-events="all" style="fill: light-dark(rgb(0, 0, 0), rgb(255, 255, 255)); stroke: light-dark(rgb(0, 0, 0), rgb(255, 255, 255));"/></g><g><path d="M 205 513 L 205 541 L 157 541 L 157 561.63" fill="none" stroke="#000000" stroke-miterlimit="10" pointer-events="stroke" style="stroke: light-dark(rgb(0, 0, 0), rgb(255, 255, 255));"/><path d="M 157 566.88 L 153.5 559.88 L 157 561.63 L 160.5 559.88 Z" fill="#000000" stroke="#000000" stroke-miterlimit="10" pointer-events="all" style="fill: light-dark(rgb(0, 0, 0), rgb(255, 255, 255)); stroke: light-dark(rgb(0, 0, 0), rgb(255, 255, 255));"/></g><g><path d="M 305 513 L 305 541 L 157 541 L 157 561.63" fill="none" stroke="#000000" stroke-miterlimit="10" pointer-events="stroke" style="stroke: light-dark(rgb(0, 0, 0), rgb(255, 255, 255));"/><path d="M 157 566.88 L 153.5 559.88 L 157 561.63 L 160.5 559.88 Z" fill="#000000" stroke="#000000" stroke-miterlimit="10" pointer-events="all" style="fill: light-dark(rgb(0, 0, 0), rgb(255, 255, 255)); stroke: light-dark(rgb(0, 0, 0), rgb(255, 255, 255));"/></g><g><path d="M 405 513 L 405 541 L 157 541 L 157 561.63" fill="none" stroke="#000000" stroke-miterlimit="10" pointer-events="stroke" style="stroke: light-dark(rgb(0, 0, 0), rgb(255, 255, 255));"/><path d="M 157 566.88 L 153.5 559.88 L 157 561.63 L 160.5 559.88 Z" fill="#000000" stroke="#000000" stroke-miterlimit="10" pointer-events="all" style="fill: light-dark(rgb(0, 0, 0), rgb(255, 255, 255)); stroke: light-dark(rgb(0, 0, 0), rgb(255, 255, 255));"/></g><g><rect x="302" y="563" width="170.5" height="80" rx="7" ry="7" fill="none" stroke="#000000" pointer-events="all" style="stroke: light-dark(rgb(0, 0, 0), rgb(255, 255, 255));"/></g><g><g fill="#000000" font-family="&quot;Times New Roman&quot;" text-anchor="middle" font-size="14px" style="fill: light-dark(rgb(0, 0, 0), rgb(255, 255, 255));"><text x="386.75" y="583">Train model</text><text x="386.75" y="600">(Batch Size = 24,</text><text x="386.75" y="617">Epochs = 100,</text><text x="386.75" y="634">Optimizer = Adam (0.001))</text></g></g><g><path d="M 257 603 L 295.63 603" fill="none" stroke="#000000" stroke-miterlimit="10" pointer-events="stroke" style="stroke: light-dark(rgb(0, 0, 0), rgb(255, 255, 255));"/><path d="M 300.88 603 L 293.88 606.5 L 295.63 603 L 293.88 599.5 Z" fill="#000000" stroke="#000000" stroke-miterlimit="10" pointer-events="all" style="fill: light-dark(rgb(0, 0, 0), rgb(255, 255, 255)); stroke: light-dark(rgb(0, 0, 0), rgb(255, 255, 255));"/></g><g><rect x="737" y="563" width="170.5" height="80" rx="7" ry="7" fill="none" stroke="#000000" pointer-events="all" style="stroke: light-dark(rgb(0, 0, 0), rgb(255, 255, 255));"/></g><g><g fill="#000000" font-family="&quot;Times New Roman&quot;" text-anchor="middle" font-size="14px" style="fill: light-dark(rgb(0, 0, 0), rgb(255, 255, 255));"><text x="821.75" y="591.5">Extract feature vectors of</text><text x="821.75" y="608.5">samples in test data using </text><text x="821.75" y="625.5">the best model</text></g></g><g><rect x="413.46" y="673" width="170.5" height="70" rx="7" ry="7" fill="none" stroke="#000000" pointer-events="all" style="stroke: light-dark(rgb(0, 0, 0), rgb(255, 255, 255));"/></g><g><g fill="#000000" font-family="&quot;Times New Roman&quot;" text-anchor="middle" font-size="14px" style="fill: light-dark(rgb(0, 0, 0), rgb(255, 255, 255));"><text x="498.21" y="696.5">Compute pairwise</text><text x="498.21" y="713.5"> Euclidean distances </text><text x="498.21" y="730.5">between the feature vectors</text></g></g><g><path d="M 822.25 643 L 822 710 L 590.33 708.05" fill="none" stroke="#000000" stroke-miterlimit="10" pointer-events="stroke" style="stroke: light-dark(rgb(0, 0, 0), rgb(255, 255, 255));"/><path d="M 585.08 708.01 L 592.11 704.57 L 590.33 708.05 L 592.05 711.57 Z" fill="#000000" stroke="#000000" stroke-miterlimit="10" pointer-events="all" style="fill: light-dark(rgb(0, 0, 0), rgb(255, 255, 255)); stroke: light-dark(rgb(0, 0, 0), rgb(255, 255, 255));"/></g><g><rect x="181.96" y="668" width="170.5" height="80" rx="7" ry="7" fill="none" stroke="#000000" pointer-events="all" style="stroke: light-dark(rgb(0, 0, 0), rgb(255, 255, 255));"/></g><g><g fill="#000000" font-family="&quot;Times New Roman&quot;" text-anchor="middle" font-size="14px" style="fill: light-dark(rgb(0, 0, 0), rgb(255, 255, 255));"><text x="266.71" y="688">Calculate EER</text><text x="266.71" y="705">Precision</text><text x="266.71" y="722">Recall</text><text x="266.71" y="739">F1-Score</text></g></g><g><path d="M 413.46 708 L 358.83 708" fill="none" stroke="#000000" stroke-miterlimit="10" pointer-events="stroke" style="stroke: light-dark(rgb(0, 0, 0), rgb(255, 255, 255));"/><path d="M 353.58 708 L 360.58 704.5 L 358.83 708 L 360.58 711.5 Z" fill="#000000" stroke="#000000" stroke-miterlimit="10" pointer-events="all" style="fill: light-dark(rgb(0, 0, 0), rgb(255, 255, 255)); stroke: light-dark(rgb(0, 0, 0), rgb(255, 255, 255));"/></g><g><path d="M 267.21 773 L 344.71 823 L 267.21 873 L 189.71 823 Z" fill="none" stroke="#000000" stroke-miterlimit="10" pointer-events="all" style="stroke: light-dark(rgb(0, 0, 0), rgb(255, 255, 255));"/></g><g><g fill="#000000" font-family="&quot;Times New Roman&quot;" text-anchor="middle" font-size="14px" style="fill: light-dark(rgb(0, 0, 0), rgb(255, 255, 255));"><text x="266.71" y="828.5">EER &lt; Best EER</text></g></g><g><path d="M 344.71 823 L 391.09 823" fill="none" stroke="#000000" stroke-miterlimit="10" pointer-events="stroke" style="stroke: light-dark(rgb(0, 0, 0), rgb(255, 255, 255));"/><path d="M 396.34 823 L 389.34 826.5 L 391.09 823 L 389.34 819.5 Z" fill="#000000" stroke="#000000" stroke-miterlimit="10" pointer-events="all" style="fill: light-dark(rgb(0, 0, 0), rgb(255, 255, 255)); stroke: light-dark(rgb(0, 0, 0), rgb(255, 255, 255));"/></g><g><g fill="#000000" font-family="&quot;Times New Roman&quot;" text-anchor="middle" font-size="14px" style="fill: light-dark(rgb(0, 0, 0), rgb(255, 255, 255));"><text x="365.71" y="815">Yes</text></g></g><g><rect x="397.46" y="800.5" width="120" height="45" rx="7" ry="7" fill="none" stroke="#000000" pointer-events="all" style="stroke: light-dark(rgb(0, 0, 0), rgb(255, 255, 255));"/></g><g><g fill="#000000" font-family="&quot;Times New Roman&quot;" text-anchor="middle" font-size="14px" style="fill: light-dark(rgb(0, 0, 0), rgb(255, 255, 255));"><text x="456.96" y="820">Best EER = EER</text><text x="456.96" y="837">Best Fold = Fold</text></g></g><g><rect x="207.46" y="918" width="120" height="40" rx="7" ry="7" fill="none" stroke="#000000" pointer-events="all" style="stroke: light-dark(rgb(0, 0, 0), rgb(255, 255, 255));"/></g><g><g fill="#000000" font-family="&quot;Times New Roman&quot;" text-anchor="middle" font-size="14px" style="fill: light-dark(rgb(0, 0, 0), rgb(255, 255, 255));"><text x="266.96" y="943.5">Fold = Fold + 1</text></g></g><g><path d="M 267.04 873 L 267.04 911.63" fill="none" stroke="#000000" stroke-miterlimit="10" pointer-events="stroke" style="stroke: light-dark(rgb(0, 0, 0), rgb(255, 255, 255));"/><path d="M 267.04 916.88 L 263.54 909.88 L 267.04 911.63 L 270.54 909.88 Z" fill="#000000" stroke="#000000" stroke-miterlimit="10" pointer-events="all" style="fill: light-dark(rgb(0, 0, 0), rgb(255, 255, 255)); stroke: light-dark(rgb(0, 0, 0), rgb(255, 255, 255));"/></g><g><g fill="#000000" font-family="&quot;Times New Roman&quot;" text-anchor="middle" font-size="14px" style="fill: light-dark(rgb(0, 0, 0), rgb(255, 255, 255));"><text x="253.04" y="897">No</text></g></g><g><path d="M 267.21 990 L 344.71 1040 L 267.21 1090 L 189.71 1040 Z" fill="none" stroke="#000000" stroke-miterlimit="10" pointer-events="all" style="stroke: light-dark(rgb(0, 0, 0), rgb(255, 255, 255));"/></g><g><g fill="#000000" font-family="&quot;Times New Roman&quot;" text-anchor="middle" font-size="14px" style="fill: light-dark(rgb(0, 0, 0), rgb(255, 255, 255));"><text x="266.71" y="1045.5">Fold &lt;     </text></g></g><g><path d="M 457.46 845.5 L 457.46 938 L 333.83 938" fill="none" stroke="#000000" stroke-miterlimit="10" pointer-events="stroke" style="stroke: light-dark(rgb(0, 0, 0), rgb(255, 255, 255));"/><path d="M 328.58 938 L 335.58 934.5 L 333.83 938 L 335.58 941.5 Z" fill="#000000" stroke="#000000" stroke-miterlimit="10" pointer-events="all" style="fill: light-dark(rgb(0, 0, 0), rgb(255, 255, 255)); stroke: light-dark(rgb(0, 0, 0), rgb(255, 255, 255));"/></g><g><path d="M 267.46 958 L 267.46 983.63" fill="none" stroke="#000000" stroke-miterlimit="10" pointer-events="stroke" style="stroke: light-dark(rgb(0, 0, 0), rgb(255, 255, 255));"/><path d="M 267.46 988.88 L 263.96 981.88 L 267.46 983.63 L 270.96 981.88 Z" fill="#000000" stroke="#000000" stroke-miterlimit="10" pointer-events="all" style="fill: light-dark(rgb(0, 0, 0), rgb(255, 255, 255)); stroke: light-dark(rgb(0, 0, 0), rgb(255, 255, 255));"/></g><g><path d="M 248.07 1219 L 286.85 1219 C 303.75 1219 317.46 1230.19 317.46 1244 C 317.46 1257.81 303.75 1269 286.85 1269 L 248.07 1269 C 231.17 1269 217.46 1257.81 217.46 1244 C 217.46 1230.19 231.17 1219 248.07 1219 Z" fill="none" stroke="#000000" stroke-miterlimit="10" pointer-events="all" style="stroke: light-dark(rgb(0, 0, 0), rgb(255, 255, 255));"/></g><g><g fill="#000000" font-family="&quot;Times New Roman&quot;" text-anchor="middle" font-size="14px" style="fill: light-dark(rgb(0, 0, 0), rgb(255, 255, 255));"><text x="266.96" y="1249.5">Stop</text></g></g><g><rect x="189.71" y="1135" width="155" height="50" rx="7" ry="7" fill="none" stroke="#000000" pointer-events="all" style="stroke: light-dark(rgb(0, 0, 0), rgb(255, 255, 255));"/></g><g><g fill="#000000" font-family="&quot;Times New Roman&quot;" text-anchor="middle" font-size="14px" style="fill: light-dark(rgb(0, 0, 0), rgb(255, 255, 255));"><text x="266.71" y="1157">Calculate Average EER</text><text x="266.71" y="1174">and Average Metrics</text></g></g><g><path d="M 267.17 1185 L 267.41 1212.63" fill="none" stroke="#000000" stroke-miterlimit="10" pointer-events="stroke" style="stroke: light-dark(rgb(0, 0, 0), rgb(255, 255, 255));"/><path d="M 267.45 1217.88 L 263.89 1210.91 L 267.41 1212.63 L 270.89 1210.85 Z" fill="#000000" stroke="#000000" stroke-miterlimit="10" pointer-events="all" style="fill: light-dark(rgb(0, 0, 0), rgb(255, 255, 255)); stroke: light-dark(rgb(0, 0, 0), rgb(255, 255, 255));"/></g><g/><g><rect x="321" y="393" width="20" height="20" fill="none" stroke="none" pointer-events="all"/></g><g><g fill="#000000" font-family="&quot;Times New Roman&quot;" font-style="italic" text-anchor="middle" font-size="14px" style="fill: light-dark(rgb(0, 0, 0), rgb(255, 255, 255));"><text x="330.5" y="408.5">K</text></g></g><g><rect x="340" y="393" width="20" height="20" fill="none" stroke="none" pointer-events="all"/></g><g><g fill="#000000" font-family="&quot;Times New Roman&quot;" text-anchor="middle" font-size="14px" style="fill: light-dark(rgb(0, 0, 0), rgb(255, 255, 255));"><text x="349.5" y="408.5">= 5)</text></g></g><g><rect x="314" y="393" width="20" height="20" fill="none" stroke="none" pointer-events="all"/></g><g><g fill="#000000" font-family="&quot;Times New Roman&quot;" text-anchor="middle" font-size="14px" style="fill: light-dark(rgb(0, 0, 0), rgb(255, 255, 255));"><text x="323.5" y="408.5">(</text></g></g><g/><g><rect x="177" y="393" width="20" height="20" fill="none" stroke="none" pointer-events="all"/></g><g><g fill="#000000" font-family="&quot;Times New Roman&quot;" font-style="italic" text-anchor="middle" font-size="14px" style="fill: light-dark(rgb(0, 0, 0), rgb(255, 255, 255));"><text x="186.5" y="408.5">K</text></g></g><g/><g><rect x="276.21" y="1030" width="20" height="20" fill="none" stroke="none" pointer-events="all"/></g><g><g fill="#000000" font-family="&quot;Times New Roman&quot;" font-style="italic" text-anchor="middle" font-size="14px" style="fill: light-dark(rgb(0, 0, 0), rgb(255, 255, 255));"><text x="285.71" y="1045.5">K</text></g></g><g><rect x="518.5" y="563" width="170.5" height="80" rx="7" ry="7" fill="none" stroke="#000000" pointer-events="all" style="stroke: light-dark(rgb(0, 0, 0), rgb(255, 255, 255));"/></g><g><g fill="#000000" font-family="&quot;Times New Roman&quot;" text-anchor="middle" font-size="14px" style="fill: light-dark(rgb(0, 0, 0), rgb(255, 255, 255));"><text x="603.25" y="591.5">The model with </text><text x="603.25" y="608.5">the lowest </text><text x="603.25" y="625.5">validation loss</text></g></g><g><path d="M 269.82 358 L 269.95 376.63" fill="none" stroke="#000000" stroke-miterlimit="10" pointer-events="stroke" style="stroke: light-dark(rgb(0, 0, 0), rgb(255, 255, 255));"/><path d="M 269.99 381.88 L 266.44 374.91 L 269.95 376.63 L 273.44 374.86 Z" fill="#000000" stroke="#000000" stroke-miterlimit="10" pointer-events="all" style="fill: light-dark(rgb(0, 0, 0), rgb(255, 255, 255)); stroke: light-dark(rgb(0, 0, 0), rgb(255, 255, 255));"/></g><g><path d="M 472.5 602.47 L 512.13 602.93" fill="none" stroke="#000000" stroke-miterlimit="10" pointer-events="stroke" style="stroke: light-dark(rgb(0, 0, 0), rgb(255, 255, 255));"/><path d="M 517.38 602.99 L 510.34 606.41 L 512.13 602.93 L 510.42 599.41 Z" fill="#000000" stroke="#000000" stroke-miterlimit="10" pointer-events="all" style="fill: light-dark(rgb(0, 0, 0), rgb(255, 255, 255)); stroke: light-dark(rgb(0, 0, 0), rgb(255, 255, 255));"/></g><g><path d="M 689 603 L 730.63 603" fill="none" stroke="#000000" stroke-miterlimit="10" pointer-events="stroke" style="stroke: light-dark(rgb(0, 0, 0), rgb(255, 255, 255));"/><path d="M 735.88 603 L 728.88 606.5 L 730.63 603 L 728.88 599.5 Z" fill="#000000" stroke="#000000" stroke-miterlimit="10" pointer-events="all" style="fill: light-dark(rgb(0, 0, 0), rgb(255, 255, 255)); stroke: light-dark(rgb(0, 0, 0), rgb(255, 255, 255));"/></g><g><path d="M 267.21 748 L 267.21 766.63" fill="none" stroke="#000000" stroke-miterlimit="10" pointer-events="stroke" style="stroke: light-dark(rgb(0, 0, 0), rgb(255, 255, 255));"/><path d="M 267.21 771.88 L 263.71 764.88 L 267.21 766.63 L 270.71 764.88 Z" fill="#000000" stroke="#000000" stroke-miterlimit="10" pointer-events="all" style="fill: light-dark(rgb(0, 0, 0), rgb(255, 255, 255)); stroke: light-dark(rgb(0, 0, 0), rgb(255, 255, 255));"/></g><g><path d="M 267 1090 L 267 1128.63" fill="none" stroke="#000000" stroke-miterlimit="10" pointer-events="stroke" style="stroke: light-dark(rgb(0, 0, 0), rgb(255, 255, 255));"/><path d="M 267 1133.88 L 263.5 1126.88 L 267 1128.63 L 270.5 1126.88 Z" fill="#000000" stroke="#000000" stroke-miterlimit="10" pointer-events="all" style="fill: light-dark(rgb(0, 0, 0), rgb(255, 255, 255)); stroke: light-dark(rgb(0, 0, 0), rgb(255, 255, 255));"/></g><g><g fill="#000000" font-family="&quot;Times New Roman&quot;" text-anchor="middle" font-size="14px" style="fill: light-dark(rgb(0, 0, 0), rgb(255, 255, 255));"><text x="253" y="1114">No</text></g></g><g><path d="M 189.71 1040 L 7 1040 L 7 403 L 166.13 403" fill="none" stroke="#000000" stroke-miterlimit="10" pointer-events="stroke" style="stroke: light-dark(rgb(0, 0, 0), rgb(255, 255, 255));"/><path d="M 171.38 403 L 164.38 406.5 L 166.13 403 L 164.38 399.5 Z" fill="#000000" stroke="#000000" stroke-miterlimit="10" pointer-events="all" style="fill: light-dark(rgb(0, 0, 0), rgb(255, 255, 255)); stroke: light-dark(rgb(0, 0, 0), rgb(255, 255, 255));"/></g><g><g fill="#000000" font-family="&quot;Times New Roman&quot;" text-anchor="middle" font-size="14px" style="fill: light-dark(rgb(0, 0, 0), rgb(255, 255, 255));"><text x="160.71" y="1031">Yes</text></g></g><g><rect x="185" y="77" width="170" height="95" rx="7" ry="7" fill="none" stroke="#000000" pointer-events="all" style="stroke: light-dark(rgb(0, 0, 0), rgb(255, 255, 255));"/></g><g><g fill="#000000" font-family="&quot;Times New Roman&quot;" text-anchor="middle" font-size="14px" style="fill: light-dark(rgb(0, 0, 0), rgb(255, 255, 255));"><text x="269.5" y="96">Initialize Vairables </text><text x="269.5" y="113">Fold = 0, Best Fold = -1</text><text x="269.5" y="130">Best EER = infinite</text><text x="269.5" y="147">Average EER = 0</text><text x="269.5" y="164">Average Metrics = 0</text></g></g><g><path d="M 269.8 172 L 269.95 190.63" fill="none" stroke="#000000" stroke-miterlimit="10" pointer-events="stroke" style="stroke: light-dark(rgb(0, 0, 0), rgb(255, 255, 255));"/><path d="M 269.99 195.88 L 266.44 188.91 L 269.95 190.63 L 273.43 188.85 Z" fill="#000000" stroke="#000000" stroke-miterlimit="10" pointer-events="all" style="fill: light-dark(rgb(0, 0, 0), rgb(255, 255, 255)); stroke: light-dark(rgb(0, 0, 0), rgb(255, 255, 255));"/></g><g><rect x="190" y="298" width="160" height="60" rx="7" ry="7" fill="none" stroke="#000000" pointer-events="all" style="stroke: light-dark(rgb(0, 0, 0), rgb(255, 255, 255));"/></g><g><g fill="#000000" font-family="&quot;Times New Roman&quot;" text-anchor="middle" font-size="14px" style="fill: light-dark(rgb(0, 0, 0), rgb(255, 255, 255));"><text x="269.5" y="325">Use 90% of the </text><text x="269.5" y="342">data for training</text></g></g><g><path d="M 269.8 267 L 269.96 291.63" fill="none" stroke="#000000" stroke-miterlimit="10" pointer-events="stroke" style="stroke: light-dark(rgb(0, 0, 0), rgb(255, 255, 255));"/><path d="M 269.99 296.88 L 266.45 289.9 L 269.96 291.63 L 273.45 289.86 Z" fill="#000000" stroke="#000000" stroke-miterlimit="10" pointer-events="all" style="fill: light-dark(rgb(0, 0, 0), rgb(255, 255, 255)); stroke: light-dark(rgb(0, 0, 0), rgb(255, 255, 255));"/></g><g><path d="M 270 267 L 270 280 L 822.25 280 L 822.25 291.63" fill="none" stroke="#000000" stroke-miterlimit="10" pointer-events="stroke" style="stroke: light-dark(rgb(0, 0, 0), rgb(255, 255, 255));"/><path d="M 822.25 296.88 L 818.75 289.88 L 822.25 291.63 L 825.75 289.88 Z" fill="#000000" stroke="#000000" stroke-miterlimit="10" pointer-events="all" style="fill: light-dark(rgb(0, 0, 0), rgb(255, 255, 255)); stroke: light-dark(rgb(0, 0, 0), rgb(255, 255, 255));"/></g><g><path d="M 760.75 513 L 728.25 513 Q 722.25 513 724.76 507.55 L 742.74 468.45 Q 745.25 463 751.25 463 L 816.25 463 Q 822.25 463 819.74 468.45 L 801.76 507.55 Q 799.25 513 793.25 513 Z" fill="none" stroke="#000000" stroke-miterlimit="10" pointer-events="all" style="stroke: light-dark(rgb(0, 0, 0), rgb(255, 255, 255));"/></g><g><g fill="#000000" font-family="&quot;Times New Roman&quot;" text-anchor="middle" font-size="14px" style="fill: light-dark(rgb(0, 0, 0), rgb(255, 255, 255));"><text x="771.75" y="485">Test</text><text x="771.75" y="502">Data</text></g></g><g><path d="M 860.75 513 L 828.25 513 Q 822.25 513 824.76 507.55 L 842.74 468.45 Q 845.25 463 851.25 463 L 916.25 463 Q 922.25 463 919.74 468.45 L 901.76 507.55 Q 899.25 513 893.25 513 Z" fill="none" stroke="#000000" stroke-miterlimit="10" pointer-events="all" style="stroke: light-dark(rgb(0, 0, 0), rgb(255, 255, 255));"/></g><g><g fill="#000000" font-family="&quot;Times New Roman&quot;" text-anchor="middle" font-size="14px" style="fill: light-dark(rgb(0, 0, 0), rgb(255, 255, 255));"><text x="871.75" y="485">Test</text><text x="871.75" y="502">Label</text></g></g><g><path d="M 822.25 358 L 822.25 440 L 872.25 440 L 872.25 456.63" fill="none" stroke="#000000" stroke-miterlimit="10" pointer-events="stroke" style="stroke: light-dark(rgb(0, 0, 0), rgb(255, 255, 255));"/><path d="M 872.25 461.88 L 868.75 454.88 L 872.25 456.63 L 875.75 454.88 Z" fill="#000000" stroke="#000000" stroke-miterlimit="10" pointer-events="all" style="fill: light-dark(rgb(0, 0, 0), rgb(255, 255, 255)); stroke: light-dark(rgb(0, 0, 0), rgb(255, 255, 255));"/></g><g><path d="M 822.25 358 L 822.25 440 L 772.25 440 L 772.25 456.63" fill="none" stroke="#000000" stroke-miterlimit="10" pointer-events="stroke" style="stroke: light-dark(rgb(0, 0, 0), rgb(255, 255, 255));"/><path d="M 772.25 461.88 L 768.75 454.88 L 772.25 456.63 L 775.75 454.88 Z" fill="#000000" stroke="#000000" stroke-miterlimit="10" pointer-events="all" style="fill: light-dark(rgb(0, 0, 0), rgb(255, 255, 255)); stroke: light-dark(rgb(0, 0, 0), rgb(255, 255, 255));"/></g><g><path d="M 772.25 513 L 772.25 540 L 822.25 540 L 822.25 556.63" fill="none" stroke="#000000" stroke-miterlimit="10" pointer-events="stroke" style="stroke: light-dark(rgb(0, 0, 0), rgb(255, 255, 255));"/><path d="M 822.25 561.88 L 818.75 554.88 L 822.25 556.63 L 825.75 554.88 Z" fill="#000000" stroke="#000000" stroke-miterlimit="10" pointer-events="all" style="fill: light-dark(rgb(0, 0, 0), rgb(255, 255, 255)); stroke: light-dark(rgb(0, 0, 0), rgb(255, 255, 255));"/></g><g><path d="M 872.25 513 L 872.25 540 L 822.25 540 L 822.25 556.63" fill="none" stroke="#000000" stroke-miterlimit="10" pointer-events="stroke" style="stroke: light-dark(rgb(0, 0, 0), rgb(255, 255, 255));"/><path d="M 822.25 561.88 L 818.75 554.88 L 822.25 556.63 L 825.75 554.88 Z" fill="#000000" stroke="#000000" stroke-miterlimit="10" pointer-events="all" style="fill: light-dark(rgb(0, 0, 0), rgb(255, 255, 255)); stroke: light-dark(rgb(0, 0, 0), rgb(255, 255, 255));"/></g><g><rect x="742.25" y="298" width="160" height="60" rx="7" ry="7" fill="none" stroke="#000000" pointer-events="all" style="stroke: light-dark(rgb(0, 0, 0), rgb(255, 255, 255));"/></g><g><g fill="#000000" font-family="&quot;Times New Roman&quot;" text-anchor="middle" font-size="14px" style="fill: light-dark(rgb(0, 0, 0), rgb(255, 255, 255));"><text x="821.75" y="325">Use 10% of the </text><text x="821.75" y="342">data for testing</text></g></g></g></svg>